<svg width="90" height="90" viewBox="0 0 90 90" fill="none" xmlns="http://www.w3.org/2000/svg">
    <path d="M43.5 83.5C65.5914 83.5 83.5 65.5914 83.5 43.5C83.5 21.4086 65.5914 3.5 43.5 3.5C21.4086 3.5 3.5 21.4086 3.5 43.5C3.5 65.5914 21.4086 83.5 43.5 83.5Z" fill="#988430"/>
    <path d="M43.5006 81.4025C64.4338 81.4025 81.4035 64.4328 81.4035 43.4996C81.4035 22.5664 64.4338 5.59668 43.5006 5.59668C22.5674 5.59668 5.59766 22.5664 5.59766 43.4996C5.59766 64.4328 22.5674 81.4025 43.5006 81.4025Z" fill="#BA9F33"/>
    <path d="M29.9645 12.2522C30.0743 10.113 30.5886 10.0997 30.5886 10.0997C30.5886 10.0997 30.7845 10.0092 30.511 10.2501C30.2481 10.4817 30.2261 11.4099 30.1958 12.6826L30.1921 12.8381C30.1795 13.362 30.2587 13.9074 30.3464 14.5118C30.4852 15.4673 30.6453 16.5701 30.4977 17.9682C30.3551 19.365 29.7497 20.3667 29.2166 21.2487C29.1616 21.3396 29.1074 21.4293 29.0546 21.518C28.6513 22.1944 28.3456 22.7859 28.3456 22.7859L26.5965 23.9431C26.5965 23.9431 24.9707 24.1643 23.495 25.1784C22.591 25.8025 21.6939 26.9469 20.9524 28.2799C20.523 29.0317 20.1647 29.9037 19.8725 30.6148C19.8462 30.6788 19.8204 30.7415 19.7952 30.8027C19.3921 31.799 19.2383 32.5835 19.1079 33.2482C18.9839 33.8807 18.8812 34.4046 18.6053 34.899C18.1211 35.748 18.0193 36.2917 17.999 36.4466C18.1967 36.1139 19.4164 34.0709 19.2982 34.4893C19.1881 34.99 18.882 35.7117 18.3814 36.5308C18.075 37.0364 18.0171 37.5322 17.9558 38.0586C17.9169 38.392 17.8765 38.7377 17.7706 39.106C17.5761 39.7991 17.3246 40.5758 17.0986 41.2737C16.8412 42.0686 16.617 42.7611 16.5478 43.111C16.418 43.7676 16.5151 44.6185 16.6581 45.872L16.6584 45.8747C16.6988 46.265 16.6921 46.699 16.6852 47.1405C16.6789 47.5518 16.6724 47.9697 16.7038 48.3649C16.7557 48.911 16.9314 49.4571 17.0746 49.6654C17.3197 50.0361 17.3972 50.4984 17.463 50.8907C17.4883 51.0418 17.5119 51.1825 17.5426 51.3035C17.614 51.5813 17.7314 51.8083 17.8445 52.0272C17.9168 52.167 17.9874 52.3036 18.0432 52.4479C18.1354 52.6583 18.1962 53.0129 18.2637 53.4063C18.3152 53.7063 18.3705 54.0288 18.4466 54.327C18.5771 54.7888 18.7559 55.2356 18.9798 55.66L18.9343 55.7577C18.9343 55.7577 17.6022 53.2349 17.0879 51.4206C16.7887 50.328 16.4179 48.8004 16.2229 46.3097C16.03 43.8392 16.3035 41.9215 16.6087 40.1068C16.8277 38.8041 17.4357 37.509 17.7614 36.8818L17.734 36.9277C17.734 36.9277 18.8912 30.4843 20.0485 28.2019C20.8028 26.6739 21.8495 25.406 22.6365 24.6975C22.9565 24.3983 23.2513 24.2559 23.4625 24.154C23.5129 24.1297 23.5586 24.1076 23.5987 24.0863C24.0518 23.8371 25.0087 23.6948 25.5604 23.6127C25.7289 23.5877 25.8595 23.5682 25.9265 23.5531C26.0898 23.5205 27.1682 23.0846 27.89 22.4606C28.4238 21.9915 28.7039 21.3927 28.8573 21.0647C28.8889 20.9971 28.9152 20.941 28.9371 20.9C29.1728 20.4805 29.2522 19.8461 29.3219 19.2887C29.3387 19.1546 29.3549 19.025 29.3726 18.9039C29.402 18.7031 29.4407 18.5004 29.4823 18.2825C29.57 17.8226 29.6707 17.2953 29.7236 16.5761C29.7901 15.6728 29.8386 14.7225 29.9193 13.1373L29.9203 13.1182C29.934 12.8488 29.9487 12.5611 29.9645 12.2522Z" fill="#806638"/>
    <path d="M50.9329 19.0532C51.7845 19.0532 52.2852 18.8454 52.2852 18.8454L52.6495 18.8647L52.0576 20.0691L50.4648 20.1977L42.5384 20.0871C42.5384 20.0871 39.4369 19.7686 40.1459 19.7815C40.6385 19.788 42.1743 19.5825 43.8756 19.3548C45.9473 19.0775 48.2643 18.7674 49.2424 18.7674C49.8853 18.7674 50.1069 18.8556 50.3039 18.934C50.4615 18.9968 50.6035 19.0532 50.9329 19.0532Z" fill="#806638"/>
    <path d="M71.1398 56.1318L71.1408 56.1344L71.1395 56.1352L71.1398 56.1318Z" fill="#806638"/>
    <path d="M71.1398 56.1318C71.1226 56.0844 70.8778 55.4031 70.8026 54.7821C70.7716 54.5264 70.7855 54.3521 70.7986 54.1887C70.8184 53.9407 70.8362 53.7179 70.692 53.2738C70.5845 52.9367 70.4111 52.8884 70.3039 52.8585C70.2684 52.8486 70.2402 52.8407 70.2239 52.825C70.1588 52.762 70.1134 52.0839 70.1262 51.7132C70.1391 51.3424 70.1134 50.8615 70.0482 50.6532C69.9509 50.5752 69.8858 50.5101 69.7426 50.0292C69.7335 50.0021 69.7246 49.9758 69.716 49.9503L69.7004 49.9038C69.566 49.5049 69.4951 49.2944 69.4241 49.1646C69.3927 49.1071 69.337 49.0517 69.2816 48.9966C69.1994 48.9149 69.1181 48.8339 69.1181 48.7484C69.1181 48.5607 69.23 48.4319 69.307 48.3432C69.3475 48.2967 69.3783 48.2612 69.3783 48.2341C69.3701 48.1312 69.2889 48.1458 69.2172 48.1586C69.1757 48.166 69.1373 48.1729 69.1181 48.1561C69.0871 48.1187 69.1231 47.992 69.1599 47.8628C69.1998 47.7223 69.2406 47.5788 69.1966 47.5449C69.1833 47.5318 69.138 47.5691 69.0849 47.6127C69.0071 47.6765 68.9125 47.7541 68.8777 47.7078C68.842 47.6649 68.8025 47.4139 68.7549 47.1114C68.7155 46.8608 68.6705 46.5748 68.6175 46.3422C68.566 46.1083 68.513 45.9043 68.4698 45.738C68.4204 45.5483 68.3839 45.4078 68.377 45.3281C68.3642 45.1852 67.4833 42.673 67.2666 42.0549L67.2652 42.0509C67.0925 41.5344 66.9471 41.0092 66.8297 40.4774C66.8006 40.3407 66.7754 40.14 66.7535 39.9659C66.7265 39.751 66.7046 39.5765 66.6866 39.6125C66.6728 39.6401 66.6684 39.713 66.6639 39.7871C66.6578 39.8879 66.6516 39.9906 66.6214 39.9832C66.5948 39.9754 66.5278 39.5895 66.4665 39.2364C66.4234 38.9878 66.3831 38.7554 66.3617 38.6828C66.3471 38.6266 66.3092 38.5273 66.2622 38.4042C66.1624 38.1426 66.0214 37.7733 65.9759 37.4801C65.9161 37.0797 65.7908 36.0868 65.695 35.3281L65.6703 35.1326C65.6544 35.0063 65.6398 34.8922 65.6266 34.7887C65.559 34.2583 65.5272 34.0088 65.5272 33.8467C65.5432 33.3729 65.517 32.8985 65.4492 32.4293C65.3206 31.6098 65.0634 30.615 64.8379 30.0368C64.7329 29.7732 64.5858 29.4106 64.4202 29.0022C63.8993 27.7176 63.1948 25.9805 63.0378 25.4527C63.0378 25.277 63.2654 25.3747 63.2654 25.3747C63.2654 25.3747 63.8307 26.7921 64.2469 27.8842C64.6502 28.9768 65.0338 29.939 65.1315 30.0368C65.2096 30.134 65.8208 31.2069 66.0938 32.9625C66.2499 33.9663 66.3486 34.9253 66.4349 35.7644C66.4995 36.3929 66.5572 36.9541 66.627 37.4162C66.6389 37.4945 66.6504 37.5734 66.6621 37.653C66.7271 38.0965 66.7949 38.5593 66.9326 39.0223C67.05 39.4186 67.2111 39.8235 67.4123 40.3288C67.5115 40.5783 67.6206 40.8521 67.7388 41.1615C68.0444 41.9484 68.272 42.6051 68.3955 43.1709C68.4736 43.5647 68.5091 43.9062 68.5389 44.1934C68.5638 44.4325 68.5847 44.634 68.6231 44.7966C68.643 44.8741 68.6653 44.9713 68.6921 45.0877C68.7708 45.4297 68.8876 45.9376 69.0915 46.5968C69.365 47.4806 69.7675 48.619 70.0405 49.3275C70.5741 50.7449 70.812 51.9284 70.8926 52.5593C70.9636 53.2084 71.2038 55.4516 71.1398 56.1318Z" fill="#806638"/>
    <path fill-rule="evenodd" clip-rule="evenodd" d="M23.1154 37.1831C23.175 37.0568 23.2443 36.9652 23.3018 36.903C23.4325 36.9332 23.5601 36.9763 23.6827 37.0318C23.6132 37.0322 23.5438 37.0366 23.4748 37.045C23.5914 37.0635 23.7345 37.1736 23.7345 37.1736C23.7345 37.1736 23.78 37.0763 23.9295 37.0956C23.9767 37.1006 24.02 37.1238 24.0503 37.1602C24.0807 37.1966 24.0956 37.2434 24.092 37.2906C24.092 37.3191 24.0401 37.3645 23.9876 37.4106C23.9434 37.4493 23.8988 37.4885 23.8841 37.5182C23.852 37.5834 23.9488 37.6421 24.0466 37.694C24.0767 37.71 24.1236 37.7148 24.174 37.7139C24.174 37.7139 23.6084 37.7142 23.4978 37.7922C23.4171 37.8491 23.7555 37.9513 24.0251 38.0326C24.1249 38.0627 24.2153 38.09 24.2715 38.1111C24.4793 38.1891 24.9281 38.5466 25.0451 38.8329C25.1557 39.1059 29.1088 40.6987 29.1088 40.6987L29.6818 40.6693L28.9628 43.6908L28.3515 46.6817L29.574 49.6391L32.0557 50.6236H34.7722L35.4293 47.4249L36.9043 45.5342L36.4199 47.5651L37.7132 50.2186L36.1333 52.474L27.7277 52.2306L22.9872 50.67C22.9872 50.67 22.6495 50.652 22.5517 50.7806C22.8889 51.1719 23.0367 51.5193 23.2331 51.9811C23.3663 52.2942 23.5219 52.66 23.7742 53.1277C23.9525 53.4548 24.1677 53.8095 24.3674 54.1388C24.4894 54.3399 24.6056 54.5315 24.7042 54.7016C24.8753 54.9925 25.0316 55.2919 25.1723 55.5987C25.1723 55.5987 26.5182 56.452 26.7783 56.5806C26.5661 56.6782 26.4447 56.7654 26.2627 56.8962C26.2385 56.9137 26.2132 56.9319 26.1864 56.9509C26.4558 57.0941 26.659 57.0551 26.8748 57.0137C27.0706 56.9761 27.2767 56.9366 27.552 57.0294C27.677 57.0717 27.7819 57.2831 27.921 57.5633C28.209 58.1432 28.6432 59.0179 29.7041 59.2985C30.335 59.4609 32.1686 58.6097 32.4871 58.4468C32.6448 58.3661 32.8586 58.1643 33.0341 57.9811L33.9168 59.6521L39.0405 61.2581L43.8976 63.2872L44.309 63.5723L43.9088 63.6704L38.7461 65.4848L34.5002 69.3925L30.7879 72.767C30.7879 72.767 30.4646 73.742 29.2129 74.1994L29.6059 73.6893L29.398 67.7268L27.3432 65.4907L24.0665 63.2868L21.8492 61.1343L20.1262 57.9222L19.6774 57.3762L19.0208 55.5104C18.9962 55.4964 18.97 55.4855 18.9428 55.4778C18.9556 59.1712 17.6226 60.088 17.6226 60.088C17.6226 60.088 17.7787 60.3156 17.9737 60.5886C17.9789 60.5959 17.9841 60.6032 17.9893 60.6105L18.0056 60.6333C18.1928 60.8938 18.397 61.1783 18.4096 61.6028C18.4197 61.9001 18.2377 62.2674 18.0486 62.649C17.8779 62.9936 17.7014 63.3498 17.6552 63.6768C17.5992 64.1243 17.6297 64.5523 17.6682 65.0933C17.6745 65.1814 17.681 65.2726 17.6874 65.3673C17.7096 65.6542 17.6501 65.94 17.5441 66.4492C17.4947 66.6869 17.435 66.9734 17.3689 67.3312C17.2927 67.7548 17.2478 68.3134 17.1928 68.9965C17.1449 69.5928 17.0893 70.2841 16.9986 71.0632C16.993 71.1133 16.9874 71.1621 16.9819 71.2109C19.4595 73.6216 22.2514 75.6834 25.2801 77.3411L25.2806 77.3433C29.0342 79.397 33.109 80.7986 37.3316 81.4885L56.1822 78.5987L69.7814 71.4961C69.7997 71.4788 69.8179 71.461 69.836 71.4433C69.8496 71.43 69.8633 71.4166 69.8769 71.4036L70.1341 63.007L69.6528 59.7949L66.6619 59.5999C66.6619 59.5999 64.1527 60.3668 61.7274 61.1631L61.9151 61.0112C63.0526 59.8214 65.2377 58.0204 65.7058 57.6822C65.6685 57.9461 65.4964 58.4308 65.2901 59.0118C65.2066 59.2469 65.1175 59.4978 65.0294 59.7563C65.1593 59.5287 65.6732 59.0473 65.9788 58.7743C66.2842 58.4977 67.3195 57.8945 67.8265 57.5991L67.9076 57.5519C67.8581 57.7675 67.832 57.9878 67.8296 58.2089C67.8296 58.2089 68.2303 57.2274 68.6011 56.5185C68.9718 55.8096 69.1797 54.6849 69.1797 54.6849L69.178 54.6836C69.178 54.6836 68.9375 55.0089 68.6709 55.1906C68.5085 54.4363 68.5085 53.9035 68.7489 53.0188C68.4034 53.9087 67.9003 53.9541 67.4067 53.9987L67.3834 54.0008C67.1442 52.8564 67.1896 50.6074 67.2548 50.0931C67.1925 50.2742 67.029 50.501 66.8771 50.7117C66.822 50.7882 66.7683 50.8626 66.7216 50.9319C66.689 50.7759 66.4679 50.6126 66.3054 50.5157C66.2015 50.4538 66.172 50.3194 66.1386 50.1677C66.1198 50.0822 66.0997 49.9912 66.0645 49.9045C65.4992 50.2427 65.1156 50.3078 65.1156 50.3078C65.1156 50.3078 65.8892 49.9109 66.4807 48.2856C67.0169 46.8301 66.8438 45.986 66.6821 45.1974C66.6437 45.0102 66.6059 44.8261 66.5784 44.6377C65.8699 46.92 64.3741 48.7339 64.3741 48.7339C64.3741 48.7339 64.3873 48.6041 64.3419 48.2333C64.2157 48.4858 64.1339 48.71 64.0403 48.9664C63.8591 49.463 63.634 50.0802 62.9566 51.2568C62.1228 52.7053 61.307 52.8917 60.8232 52.8514L61.0774 51.946C62.4432 49.5514 63.6081 45.8875 63.5678 43.0925C63.5234 40.392 62.4108 38.9693 61.839 38.3019L61.0435 33.969L50.809 33.1953L46.0694 37.7142L39.6191 38.7283L38.8738 40.219C38.8751 40.2026 38.8762 40.1895 38.8769 40.18L38.8783 40.163L38.6704 37.8939L37.5003 37.1849L36.5487 36.2664L35.6512 37.9569L35.4877 38.12C35.5539 37.8399 35.592 37.5533 35.6009 37.2646L35.2628 34.7743L33.787 32.9081L32.0519 33.8702L30.6176 34.1001L26.5213 36.5432L26.1305 36.6929L27.9037 35.1724L27.6618 34.6852L27.8868 34.5338L25.8907 32.0761L24.9413 27.4008L24.7463 24.9105L23.0884 24.7999L21.4952 26.5817L19.8571 29.5529L18.927 32.4597L18.5108 34.1956L17.8678 36.3023L17.9656 36.4647C17.8376 36.9974 17.8304 37.1185 17.8109 37.4445C17.8056 37.5324 17.7995 37.6353 17.7898 37.7651C17.8986 36.8646 18.6136 35.8779 19.1911 35.081C19.3057 34.9229 19.4149 34.7721 19.5129 34.6311C19.8056 34.2085 19.9681 33.8575 19.9814 33.7923C20.0007 33.7196 19.9902 33.6314 19.9786 33.5337C19.9591 33.3693 19.9363 33.1777 20.0465 32.9861C20.1046 32.8842 20.233 32.841 20.3933 32.787C20.5912 32.7204 20.8378 32.6374 21.0606 32.4074C21.2748 32.188 21.4648 31.8802 21.6488 31.5821C21.9226 31.1382 22.1832 30.7159 22.4909 30.639C23.2256 30.4504 23.8239 30.7234 23.9671 31.38C24.064 31.8472 23.6332 32.1831 23.2649 32.4702C23.0891 32.6073 22.9276 32.7333 22.8445 32.8571C22.6346 33.1699 22.6403 33.411 22.6565 34.0938C22.6601 34.2474 22.6643 34.4235 22.6666 34.6277C22.6795 35.7395 22.9868 36.9752 23.1154 37.1831ZM32.8687 39.2238L32.3007 38.7263C32.6812 38.6475 33.0085 38.5955 33.2272 38.6426C33.2502 38.6483 33.2727 38.6539 33.2948 38.6594C33.7678 38.7765 34.0501 38.8465 34.3978 39.4492C34.7029 39.9428 34.9769 40.1071 35.0781 40.1543L35.0859 40.172C35.1532 40.1927 35.2232 40.2037 35.2937 40.2045C35.2157 40.2697 35.0529 40.4124 35.118 40.7832C35.1349 40.8793 35.1614 40.9819 35.1883 41.0862C35.2637 41.3787 35.3426 41.6844 35.2228 41.8958C35.0273 41.675 34.7594 41.5684 34.4951 41.4631C34.2382 41.3609 33.9847 41.26 33.804 41.0569C33.5209 40.7437 33.3939 40.4138 33.2831 40.1259C33.1553 39.7941 33.0491 39.5181 32.7499 39.3878L32.8687 39.2238Z" fill="#D8C47C"/>
    <path fill-rule="evenodd" clip-rule="evenodd" d="M18.3549 35.8486L17.1976 39.353L16.3785 43.4167L16.424 46.7329L16.6272 47.6203C16.606 47.7202 16.5925 47.7842 16.5925 47.7842L16.7031 49.2149L17.2363 51.1784L17.7507 52.4642L18.2513 54.0377L18.6863 55.0947L19.0374 55.9009L19.343 57.7152L20.8187 59.2754L21.6056 59.6269L22.0585 59.395L26.6001 63.5324L35.716 65.8469L41.1191 64.255L47.8878 61.394L49.5844 59.5744C49.554 59.5882 48.5244 60.0472 46.7617 60.0285C46.8643 59.9468 46.9986 59.7777 47.1493 59.5881C47.3942 59.2799 47.6823 58.9173 47.9476 58.7868C48.0662 58.7266 48.177 58.6791 48.2835 58.6336C48.5794 58.5069 48.8408 58.3951 49.1374 58.065C49.2059 57.9854 49.2659 57.9111 49.3227 57.8408C49.6004 57.497 49.8018 57.2477 50.5352 56.9403C51.7709 56.4067 50.9209 55.7175 50.9209 55.7175C51.057 55.5838 51.2025 55.46 51.3564 55.3471C51.6753 55.1067 52.0456 54.8139 52.0135 54.3C51.968 53.4355 51.8056 52.1805 51.0966 51.4523C51.3869 51.392 51.7891 51.3398 52.2186 51.2841C52.8089 51.2076 53.4509 51.1243 53.9255 51.004C54.8745 50.7631 55.3104 50.4249 55.3104 50.4249C55.3104 50.4249 54.7643 49.4952 55.6485 48.5591C55.8612 48.334 56.0645 48.1306 56.2581 47.937C56.8691 47.3257 57.3828 46.8118 57.7878 46.0166C57.7163 46.0075 57.6405 45.995 57.5586 45.9815C56.939 45.8794 55.9669 45.7193 53.8668 46.5172C53.9952 46.5776 54.1191 46.6471 54.2375 46.7251C54.2375 46.7251 52.7747 47.1284 52.2415 47.5772C51.8655 47.8951 51.6224 48.1897 51.3996 48.4597C51.0712 48.8576 50.787 49.202 50.1867 49.4888C49.6547 49.7429 49.1209 49.8265 48.612 49.9063C48.1569 49.9776 47.7219 50.0457 47.3261 50.2299C46.8029 50.4733 46.558 50.694 46.3734 50.8603C46.2622 50.9605 46.1729 51.041 46.0578 51.0948C46.0851 51.1275 46.0873 51.1693 46.0897 51.2149C46.093 51.2782 46.0967 51.349 46.1684 51.4133C46.1619 51.4225 46.1528 51.4361 46.1412 51.4533C46.0144 51.6423 45.5967 52.265 45.1736 52.265C45.219 52.4407 45.6091 52.5706 45.6091 52.5706C45.6091 52.5706 45.3232 52.7789 44.5949 52.8307C44.6341 52.8716 44.6731 52.9128 44.7127 52.9546C45.0466 53.3076 45.4193 53.7016 46.2854 54.2482C46.2645 54.2917 46.2258 54.3409 46.1829 54.3955C46.0657 54.5445 45.917 54.7334 46.0124 54.9571C46.1555 55.2627 46.5267 55.6789 48.0085 56.0171C47.8082 56.0256 47.5989 56.0442 47.3771 56.064C46.7633 56.1187 46.0543 56.1818 45.1796 56.0625C44.9717 56.0375 44.7941 56.0143 44.6387 55.9939C43.9051 55.898 43.6663 55.8667 43.0601 56.0171C43.089 56.046 43.1358 56.0642 43.1926 56.0863C43.2888 56.1237 43.4135 56.1722 43.5281 56.303C43.4968 56.305 43.4391 56.3027 43.3624 56.2997C42.9615 56.2838 42.0439 56.2475 41.6945 56.7063C41.2709 57.2563 41.0809 58.1514 41.1008 58.7743C40.8552 58.7665 40.4412 58.8041 39.8843 59.0345C39.2971 59.2731 38.7297 59.3459 38.1837 59.416C37.8472 59.4591 37.5188 59.5013 37.199 59.5805C36.6589 59.7144 36.1212 59.3092 35.6352 58.943C35.3664 58.7404 35.1134 58.5497 34.8844 58.4687C34.2415 58.2282 33.389 57.6496 33.389 57.6496L31.5888 57.4739L27.9739 55.9459L23.6064 51.5947L23.282 49.4763L22.0788 46.3427L19.9396 43.4817L19.8934 42.349L22.8412 37.1032L24.1742 33.2147L19.7338 33.5855L18.3549 35.8486ZM21.2439 57.8677L21.4848 58.3648L21.3266 58.1438C21.3266 58.1438 21.2822 58.0335 21.2439 57.8677ZM22.9659 50.9566L22.8237 50.8149C22.8703 50.8499 22.918 50.8982 22.9659 50.9566Z" fill="#E6DB9D"/>
    <path fill-rule="evenodd" clip-rule="evenodd" d="M26.6011 28.2941C26.5361 28.3401 26.4677 28.3808 26.3966 28.4161C26.2651 28.6258 26.1291 28.8811 26.0284 29.1638C25.7549 29.931 25.7095 30.7698 25.7095 30.7698L25.6966 31.0103C25.6966 31.0103 25.2024 31.7647 25.0074 31.9923C24.0016 30.8489 24.1424 29.1711 24.1664 28.8859C24.1673 28.8744 24.1681 28.8651 24.1686 28.8582C23.8304 29.2954 23.5115 29.424 23.4143 29.424C23.362 29.424 23.3322 29.3621 23.3037 29.3027C23.2791 29.2517 23.2555 29.2025 23.2192 29.1964C23.1897 29.1964 23.0505 29.2513 22.8853 29.3165C22.7963 29.3517 22.6994 29.3899 22.6085 29.424C22.2487 26.6529 23.3674 25.7016 23.5904 25.512C23.6054 25.4993 23.6164 25.4899 23.6226 25.4837C23.4468 25.302 23.4468 24.9831 23.4468 24.9831C23.4468 24.9831 23.4147 24.9509 23.3495 24.8729C24.169 24.6509 25.202 24.2484 26.1651 23.813C26.5359 23.6501 26.9191 23.4748 27.3224 23.2669C28.5221 22.6351 29.1768 22.4669 29.2008 22.4608L29.2656 22.6786C29.4227 22.4994 29.6058 22.3136 29.8196 22.1221C31.3802 20.7239 31.991 20.243 31.991 20.243L34.5138 18.9751L37.6153 20.1976L36.0744 26.2368L34.8781 29.0656L34.7541 29.0423C34.6782 29.3399 34.5834 29.5567 34.5055 29.7016L34.6315 29.6777V31.3943L33.9744 33.2733C33.9744 33.2733 33.9196 33.3961 33.8462 33.5374L34.0263 33.2795L36.6919 29.0983L37.6472 27.7751C37.6516 27.7619 37.654 27.7549 37.654 27.7549L38.8893 24.7975L42.4069 21.3578L47.8688 20.9875L48.402 23.8164L51.068 24.7332L52.0331 26.2051L52.6931 25.7379L58.416 30.7398L59.2844 33.2632L59.3071 33.3064L60.0289 35.3937C59.7376 35.2557 59.4214 35.1783 59.0993 35.1661C58.8832 35.1599 58.4324 35.1924 57.9504 35.2271C57.3299 35.2719 56.6578 35.3203 56.3685 35.2947C56.2684 35.2859 56.1628 35.2755 56.0505 35.2645C55.5864 35.2191 55.0067 35.1623 54.216 35.152C53.2349 35.152 52.7986 34.8468 52.7986 34.8468C52.7986 34.8468 52.5581 34.9445 52.142 34.9574C51.9637 34.9574 51.7937 34.9371 51.5994 34.9139C51.3402 34.8829 51.0376 34.8468 50.6139 34.8468C50.201 34.8468 49.9086 35.0844 49.6694 35.2787L49.6645 35.2827C49.4831 35.4302 49.357 35.5477 49.3062 35.5963C49.5047 35.6011 49.7033 35.5856 49.8987 35.5499C49.8491 35.5591 49.7996 35.5749 49.75 35.5967C49.8014 35.5923 49.8556 35.5872 49.9119 35.581C49.6897 35.6175 49.4592 35.7951 49.232 36.0573C49.2369 36.057 49.2419 36.0568 49.2469 36.0565C49.0896 36.235 48.9324 36.4551 48.7735 36.6967C48.7518 36.7318 48.7302 36.7674 48.7087 36.8034L48.7052 36.8018C48.6438 36.897 48.5822 36.995 48.5201 37.0946C48.182 37.6732 47.8112 38.0637 47.6033 38.239C47.219 38.5884 46.6885 38.7658 46.0726 38.9718C46.001 38.9957 45.9279 39.0202 45.8541 39.0452C45.5383 39.152 45.1853 39.3379 44.8026 39.5396C44.0192 39.9522 43.1112 40.4305 42.1415 40.4305C41.8344 40.4305 41.589 40.343 41.3551 40.2597C41.1334 40.1807 40.9221 40.1054 40.6786 40.1116C40.5228 40.1151 40.3698 40.1528 40.2302 40.2222L40.2242 40.2079C40.0706 40.2745 39.9247 40.3616 39.7909 40.4454C39.3442 40.7162 38.9695 41.0908 38.6987 41.5375C38.733 41.1346 38.5847 40.4124 38.5702 40.3477C38.5567 40.2881 38.5019 40.2997 38.4425 40.3123C38.4374 40.3134 38.4321 40.3145 38.427 40.3155C38.3948 39.9448 38.2324 39.0473 38.2324 39.0473C38.2299 39.1399 38.2146 39.2318 38.187 39.3203C38.1085 38.8651 37.9007 38.2736 37.9007 38.2736H37.9135V36.4597L38.9735 35.2699L44.0449 33.3908L46.8788 30.5572L46.2188 28.2583L45.3131 29.4888L44.2662 29.2488L44.5089 29.9963L43.6705 31.6546L42.0319 32.5191L40.3286 33.4359C40.3286 33.4359 39.867 33.6751 39.3985 33.5465C39.119 33.4717 39.1208 33.2109 39.1224 32.9778C39.1234 32.826 39.1244 32.686 39.0475 32.6168C39.0091 32.5841 38.9182 32.6064 38.7947 32.6367C38.7564 32.6461 38.7148 32.6563 38.6708 32.6659L37.9023 33.8628L37.5513 34.8576L37.1655 36.4637L37.1004 37.1726C37.1004 37.1726 36.7948 37.257 36.7815 37.0946C36.7591 36.9601 36.7158 36.8299 36.6529 36.7088C36.5926 37.0255 36.5056 37.3365 36.3927 37.6385C36.1981 38.1717 35.8788 38.4122 35.6838 38.4906C35.5467 38.5494 35.4178 38.6259 35.3006 38.7182C35.3006 38.7182 35.268 38.3997 35.3135 38.1721C35.3382 37.9989 35.3516 37.7735 35.3566 37.6892C35.3575 37.6742 35.3581 37.6633 35.3585 37.6585C35.3585 37.6552 35.3588 37.6549 35.3585 37.6585C35.336 37.6974 35.3101 37.7342 35.2809 37.7684C35.1052 37.2365 35.073 36.2078 35.073 36.2078C35.0919 36.2264 35.1138 36.2418 35.1377 36.2532C35.0916 36.1858 35.0646 36.1072 35.0597 36.0256C35.0383 36.0651 35.0273 36.1093 35.0276 36.1542C34.7992 35.9461 34.6749 35.6912 34.6177 35.574C34.5947 35.5268 34.5825 35.5019 34.5788 35.5113C34.5666 35.5322 34.5557 35.5538 34.5462 35.576C34.5017 35.4853 34.469 35.3892 34.4489 35.2901C34.4325 35.2079 34.4409 35.1094 34.4492 35.0135C34.4572 34.9194 34.4651 34.8278 34.4489 34.7569C34.3986 34.8101 34.3391 34.8536 34.2732 34.8855C34.2732 34.8855 34.2539 34.7231 34.2411 34.6125C34.2213 34.5023 34.2213 34.4826 34.2865 34.3394C33.6881 34.3073 33.545 33.9691 33.545 33.9691L33.5583 33.9497C33.5221 33.8954 33.492 33.7972 33.4668 33.7149C33.4466 33.649 33.4296 33.5934 33.4151 33.5789C33.3825 33.5464 33.3371 33.6115 33.3371 33.6115C33.3238 33.6441 33.2591 33.6766 33.2591 33.6766C33.2681 33.6969 33.2843 33.713 33.3045 33.7221C32.4378 33.852 31.7615 34.3333 31.7615 34.3333C31.75 34.3036 31.7305 34.2775 31.7053 34.2581C31.6801 34.2386 31.65 34.2263 31.6183 34.2227C31.5026 34.203 31.4897 34.398 31.4897 34.398C31.4897 34.398 31.2878 34.4572 30.8978 34.7169C30.7326 34.8269 30.586 34.965 30.4181 35.1233C30.1896 35.3386 29.9216 35.5913 29.5129 35.8613C29.3695 35.9619 29.3255 36.0831 29.274 36.2248C29.1926 36.4489 29.0925 36.7245 28.5507 37.0511C27.7362 37.5542 27.1148 37.4887 26.844 37.4602C26.8209 37.4577 26.8001 37.4556 26.7822 37.4541C26.5546 37.4348 26.4312 37.2136 26.444 37.0186C26.2567 37.0186 25.9244 37.1606 25.569 37.3125C25.16 37.4873 24.7204 37.6752 24.4351 37.6752C24.6884 37.6105 25.4299 37.0966 25.5272 36.9213C25.6181 36.7263 25.8783 36.3229 26.1513 36.0045C26.3178 35.8004 26.5694 35.5885 26.7494 35.4368C26.8508 35.3514 26.9294 35.2851 26.9575 35.2501C27.0227 35.1528 26.8602 35.0877 26.7629 35.0744C26.9254 34.8991 27.6472 34.4177 27.6472 34.4177H27.6455L27.9185 33.8391L29.5358 32.1634C29.5478 32.1462 29.5597 32.1292 29.5714 32.1123C29.6157 32.0485 29.658 31.9876 29.6993 31.9339C30.5184 30.8937 30.3238 30.4256 30.3238 30.4256C29.9552 30.5045 29.6809 30.2306 29.5523 29.9901C29.4931 29.882 29.4597 29.7618 29.4545 29.6387C29.5162 29.6651 29.5849 29.6698 29.6496 29.6519C29.7192 29.6229 29.7164 29.495 29.715 29.431C29.7149 29.4234 29.7147 29.4166 29.7147 29.4111C29.7147 29.3592 29.6513 29.3463 29.5861 29.3463C29.6125 29.3272 29.6348 29.3028 29.6516 29.2749C29.6684 29.2469 29.6793 29.2158 29.6839 29.1835C29.6365 29.1913 29.5887 29.1957 29.5407 29.1968C29.4811 29.1921 29.4222 29.1812 29.365 29.1642C29.317 29.1652 29.2692 29.1695 29.2218 29.177C29.2394 29.1596 29.2509 29.1369 29.2544 29.1123C29.2544 29.0965 29.2421 29.0884 29.228 29.079C29.213 29.0691 29.1959 29.0577 29.1892 29.0343C28.7538 29.4372 27.323 29.2422 27.323 29.2422H27.3213C27.7451 29.0653 27.876 28.9659 28.2114 28.7113C28.3343 28.6181 28.4846 28.5039 28.6869 28.3575C28.75 28.311 28.8116 28.2627 28.8717 28.2131L26.6011 28.2941ZM31.4117 28.412C31.4023 29.1545 31.3112 29.9227 31.094 30.7013C31.249 30.432 31.5641 29.9662 32.1261 29.4372C32.4192 29.1613 32.6752 28.916 32.8918 28.6911L31.4117 28.412Z" fill="#CAAE5B"/>
    <path d="M34.6466 79.5838C34.6297 79.5993 34.6129 79.6148 34.5961 79.6303C34.6234 79.6743 34.6504 79.7453 34.6504 79.8542C34.817 79.7587 34.9701 79.7247 35.1055 79.6948C35.2184 79.6698 35.319 79.6475 35.4047 79.5945C35.4264 79.6408 35.448 79.711 35.4734 79.793C35.5618 80.0793 35.6949 80.5104 36.0288 80.576C36.4771 80.6738 36.9585 80.381 37.4462 80.0107C37.5402 79.9357 37.6368 79.857 37.7344 79.7774C38.1361 79.4499 38.556 79.1076 38.8894 78.9507C39.0414 79.2303 39.1761 79.5191 39.2927 79.8152C39.4397 79.698 39.6158 79.4843 39.8212 79.2351C40.379 78.5583 41.1522 77.62 42.1404 77.6434C42.5313 76.7198 43.1843 75.9309 44.0186 75.3744C45.2736 74.5227 46.0601 74.4575 47.0421 74.5355C47.4321 74.0289 47.9127 73.599 48.4595 73.2677C48.4785 73.2753 48.5014 73.2857 48.5279 73.2978C48.7283 73.3893 49.136 73.5755 49.6301 73.3457C49.8509 73.2443 50.0825 73.029 50.3327 72.7964C50.7237 72.4329 51.1601 72.0272 51.6716 71.948C52.1236 71.8858 52.5832 71.9823 52.972 72.221C52.972 72.221 55.4151 69.7955 57.1009 68.9892C57.0357 68.7942 56.9058 68.0596 58.8822 66.4338C58.9419 66.4865 58.9466 66.5903 58.9506 66.677C58.954 66.751 58.9569 66.8127 58.9928 66.8196C59.0249 66.8196 59.5071 66.6117 60.1175 66.1432C60.8718 65.5779 61.7754 64.986 62.3214 64.8235C63.3501 64.5179 64.4414 65.142 64.4414 65.142C64.5342 65.0769 64.6376 65.0285 64.747 64.9988L64.7591 64.9967C65.0126 64.9524 65.1975 64.92 65.3385 64.8702C65.3343 64.9803 65.3514 65.1158 65.3704 65.2658C65.4098 65.5767 65.457 65.95 65.3385 66.2877C65.542 66.4022 65.7576 66.4937 65.9814 66.5607C65.9703 66.5849 65.9579 66.6127 65.9442 66.6437C65.8212 66.9207 65.5899 67.4418 65.2274 67.7051C65.3659 67.7717 65.4553 67.8427 65.5457 67.9146C65.6757 68.018 65.808 68.1231 66.092 68.2195C65.8969 68.4925 65.5776 68.961 65.4353 69.2481C65.3737 69.3796 65.2436 69.6891 65.097 70.0375L65.0966 70.0385L65.0958 70.0404L65.0954 70.0413C64.9018 70.5019 64.68 71.0292 64.5507 71.3025C64.4553 71.4933 64.3467 71.7474 64.2406 71.9957C64.0791 72.3738 63.9233 72.7384 63.8289 72.8455C63.7918 72.8875 63.7319 72.9617 63.6563 73.0553C63.4122 73.3575 63.004 73.8628 62.6716 74.1455C63.0574 74.0023 64.6355 73.5214 65.305 73.3393C65.1057 73.6316 64.0955 75.1305 63.1242 76.5719C58.4739 79.3592 53.283 81.1233 47.8974 81.7468C42.5117 82.3703 37.055 81.8388 31.8909 80.1877L31.8924 80.1846C29.466 79.4066 27.1226 78.385 24.8981 77.1342V77.0584C24.9529 77.0242 25.0012 76.9807 25.0409 76.9298C25.0579 76.9054 25.0731 76.8793 25.0872 76.8551C25.1109 76.8145 25.1313 76.7794 25.1515 76.7673C25.2166 76.7348 25.5222 76.6388 25.6847 76.6696C25.7381 76.6798 25.8205 76.7058 25.9152 76.7356C26.108 76.7964 26.3515 76.8733 26.5042 76.8646C26.6672 76.8602 26.8397 76.8138 27.0318 76.7622C27.3913 76.6657 27.8195 76.5506 28.3832 76.6568C29.2464 76.8164 29.6713 77.2596 30.08 77.6861C30.2871 77.9021 30.49 78.1138 30.7436 78.2821C31.1838 78.5829 31.6372 78.5117 31.8077 78.4849C31.8364 78.4804 31.8571 78.4771 31.8683 78.4771H32.0436C32.0541 78.4771 32.086 78.4489 32.1288 78.4111C32.2193 78.3312 32.3585 78.2083 32.4469 78.2174C32.5933 78.2246 32.6655 78.2957 32.7295 78.3589C32.7793 78.4079 32.8242 78.4522 32.8953 78.4578C33.0682 78.4783 33.314 78.4407 33.5657 78.4021C33.8722 78.3552 34.1876 78.3069 34.3911 78.3605C34.5011 78.395 34.6011 78.4555 34.6826 78.5369C34.7641 78.6183 34.8247 78.7182 34.8592 78.8281C34.9372 79.0686 34.8721 79.3742 34.6835 79.5499L34.6466 79.5838Z" fill="#CAAE5B"/>
    <path d="M28.5455 68.2353C28.5455 68.2353 28.4169 67.754 27.2253 66.5123C27.0676 66.3486 26.9383 66.1977 26.822 66.0622C26.689 65.9071 26.5731 65.772 26.4517 65.6606C26.0722 65.3027 25.798 65.1206 25.537 64.9473C25.4089 64.8622 25.2839 64.7793 25.1513 64.6786C24.7671 64.3933 24.3682 64.232 23.9791 64.0746C23.4726 63.8698 22.9828 63.6717 22.5637 63.2158C21.8226 62.4095 20.959 60.8691 20.3589 59.2948C19.7674 57.7213 19.6045 57.2207 19.6045 57.1753C19.6045 57.1298 19.7674 56.8242 19.9753 56.8697C20.1232 56.902 20.1659 57.1152 20.197 57.2708C20.2096 57.3339 20.2204 57.3875 20.2355 57.4157C20.339 57.5752 20.4565 57.7253 20.5865 57.8641C20.6309 57.9151 20.6781 57.9677 20.7269 58.0221C21.014 58.3418 21.3598 58.727 21.5487 59.2622C21.5033 58.729 21.3211 58.1375 21.3211 58.1375C21.3211 58.1375 22.4656 58.8593 23.4407 59.6132C23.5859 59.7248 23.7184 59.8255 23.8398 59.9178L23.8424 59.9198C24.54 60.45 24.8682 60.6994 25.1123 61.1087C25.1885 61.2365 25.2921 61.4198 25.4093 61.6272C25.7331 62.2002 26.1605 62.9564 26.3981 63.2286C26.7217 63.5994 31.1558 64.9971 31.1558 64.9971L33.265 66.5697L34.3121 68.8649L33.4926 70.1508L31.9191 70.489L29.3637 69.3446L28.5455 68.2353Z" fill="#CAAE5B"/>
    <path d="M61.3213 35.4791C61.5814 36.3156 61.6894 37.192 61.6402 38.0666L62.6461 40.3706L62.7133 43.0532L59.7742 52.6825C59.7742 52.6825 61.2371 61.4262 60.8861 62.1167C60.5346 62.7867 59.5205 64.139 59.5205 64.139L59.5231 64.1368C60.0893 63.9 60.6332 63.6131 61.1484 63.2796C61.8054 62.8317 62.4295 62.4459 62.9953 62.3173C63.158 62.2795 63.362 62.2502 63.5854 62.218C64.1297 62.1397 64.7889 62.0448 65.2447 61.7713C65.6333 61.5499 66.0477 61.1278 66.325 60.8452L66.3258 60.8444C66.4149 60.7537 66.4898 60.6774 66.5451 60.6269C66.7492 60.4504 67.3122 60.3398 67.7047 60.2626C67.7755 60.2487 67.8408 60.2359 67.8974 60.224C68.2681 60.1262 68.9248 60.2501 69.2629 60.848C69.6011 61.446 69.458 62.103 69.458 62.103L70.1798 62.5839C70.1798 62.5839 70.4331 60.3783 70.8364 60.0092C71.1938 59.6822 71.2345 59.3289 71.2845 58.8947C71.2878 58.8659 71.2912 58.8367 71.2947 58.8071C71.2979 58.7795 71.3013 58.7516 71.3049 58.7234C71.341 58.3147 71.2785 57.7995 71.2514 57.5761C71.2444 57.5187 71.2397 57.4804 71.2397 57.4684C71.2397 57.4524 71.2441 57.4261 71.2501 57.3896C71.2663 57.2924 71.2945 57.1223 71.2852 56.8765C71.2563 56.6325 71.2085 56.3912 71.142 56.1547L70.8364 53.0661L70.4506 51.3628L69.794 49.2887L69.5664 48.404L69.3255 47.5849L69.0396 47.1169L68.539 45.1727L67.7002 42.3571L66.9458 39.6911L66.3672 37.1815C66.3672 37.1815 66.105 35.493 65.8602 34.2764L65.6966 33.0844L65.391 31.1402L64.4095 28.5976L63.2844 25.7825L62.5433 26.3285C62.5433 26.3285 61.3384 26.3748 60.9501 27.7914C60.5655 29.1944 59.8664 29.6039 59.6698 29.7191L59.6643 29.7223C59.4757 29.8329 59.3454 29.9109 59.5211 30.8929C59.9561 31.7793 60.8927 34.1461 61.3213 35.4791Z" fill="#CAAE5B"/>
    <path fill-rule="evenodd" clip-rule="evenodd" d="M23.0004 35.7702C23.0004 35.7702 22.4544 35.933 22.1942 36.2189C21.934 36.492 21.8235 36.7195 21.4724 37.1812C21.1214 37.6428 21.1017 38.02 20.8154 38.5986C20.5295 39.1644 19.8985 40.016 19.8205 40.3216C19.7425 40.6272 19.6127 42.0575 19.4502 42.7339C19.3071 43.4103 19.6127 44.2426 19.6127 44.2426L19.983 44.1642C19.983 44.1642 19.983 44.6455 20.3537 44.9708C20.7241 45.2893 20.7892 43.8912 20.7892 43.8912L22.1741 39.2162L24.261 37.7988L24.4886 36.6544L23.0004 35.7702Z" fill="#E6DB9D"/>
    <path fill-rule="evenodd" clip-rule="evenodd" d="M24.0131 37.8899C24.0131 37.8899 23.0312 37.9547 22.5503 38.3061C22.3552 38.4489 22.2772 38.5659 22.0694 38.7416C21.6857 39.0601 21.2953 39.3528 21.1071 39.7703C20.8988 40.186 20.6712 40.817 20.5152 42.0068C20.45 42.5074 20.45 42.9691 20.4046 43.3724C20.3395 43.9184 20.2422 44.3539 20.294 44.6582C20.3592 45.2823 21.003 45.6076 21.0655 46.3161L22.3985 45.6402L23.6535 40.6918L26.3195 39.0202L24.8108 37.3297L24.0114 37.8869L24.0131 37.8899Z" fill="#E6DB9D"/>
    <path fill-rule="evenodd" clip-rule="evenodd" d="M30.315 38.9693C30.3554 39.0347 30.4123 39.0884 30.48 39.1249C30.5477 39.1613 30.6238 39.1794 30.7007 39.1772C31.2793 39.1772 31.8121 39.3203 32.0333 39.6126C32.404 40.0811 33.4314 41.5766 33.4314 41.5766L35.8891 42.4608L36.0477 39.5668L33.3624 37.701L30.3064 38.8257V38.9688H30.3132L30.315 38.9693Z" fill="#D8C47C"/>
    <path fill-rule="evenodd" clip-rule="evenodd" d="M22.8686 60.3288C22.8686 60.3288 23.4018 61.1805 24.7022 61.9867C25.8728 62.6956 27.7257 63.3394 29.3776 63.723C30.3265 63.9506 31.2759 64.1259 32.1276 64.1392C34.4228 64.1713 36.0027 63.5151 37.9602 63.3004C39.0202 63.1898 40.3206 63.1054 41.6729 62.7861C43.4088 62.3699 44.4362 61.9014 45.8343 61.243C46.8484 60.775 47.7785 60.424 48.5325 59.9752C49.5924 59.3511 50.3661 58.6555 51.2636 58.4476C51.153 58.7532 51.036 59.2993 50.1518 59.865C50.6198 59.8517 51.2636 59.8196 51.2636 59.8196C51.2636 59.8196 50.6395 60.1899 49.5406 61.0223C48.8642 61.5366 47.9671 62.4072 47.0503 62.9858C46.4584 63.3565 45.8146 63.6287 45.392 63.8507C44.3633 64.4165 43.9484 64.7024 43.2725 65.3938C43.5129 65.3809 43.5327 65.3938 43.5327 65.3938C43.5327 65.3938 42.6806 65.5043 42.0698 65.8292C41.9412 65.8292 41.7183 65.7838 41.3283 65.8944C41.0227 65.9917 40.6193 66.2133 40.2036 66.3299C39.6117 66.5056 39.4171 66.4276 39.4171 66.4276L39.5144 66.6226C39.5144 66.6226 38.7429 66.6093 38.4857 66.6355C38.5311 66.6483 38.5183 66.668 38.5183 66.668C38.4731 66.6756 38.4296 66.691 38.3897 66.7135C38.2659 66.7937 38.1298 66.8529 37.9868 66.8888C37.9088 66.9016 37.8436 66.9016 37.7459 66.9213C37.7785 66.9994 38.0322 67.4357 38.1492 67.6929C38.0519 67.758 36.5886 68.8634 36.5886 68.8634C36.634 68.9348 36.6711 69.0112 36.6992 69.091C36.7447 69.2337 36.7644 69.442 36.8098 69.5393C36.92 69.7344 36.9851 69.7669 36.9851 69.7669C36.9851 69.7669 36.8098 69.7995 36.5038 69.8775C36.244 69.9427 35.9251 70.0528 35.4751 70.118C35.337 70.1359 35.1981 70.1468 35.0589 70.1506C35.1241 70.2937 35.4099 70.8398 34.8832 71.4703C34.3564 72.1008 34.194 72.1925 34.0315 72.5954C33.9497 72.5335 33.8627 72.479 33.7713 72.4325C33.596 72.3545 33.3552 72.2379 33.2707 72.0815C33.2215 72.2899 33.1563 72.4942 33.0757 72.6927C32.9132 73.1282 32.6728 73.5576 32.6274 73.8825C32.4516 73.6875 32.1267 73.3039 31.678 73.3819C31.2292 73.4599 30.8717 74.0711 30.7937 74.2468C30.7937 74.1363 30.7157 74.0518 30.6964 74.1817C30.6832 74.3248 30.4363 75.8199 29.0578 77.0294C29.045 76.7238 29.045 76.0475 29.0124 75.8267C28.8838 75.9553 28.7265 76.1452 27.79 76.5485C26.8732 76.9514 27.0185 77.3547 27.0185 77.3547C27.0185 77.3547 26.9405 76.7118 27.4347 76.0346C27.9353 75.3587 28.2409 75.0398 28.2409 74.9879C28.2328 74.9351 28.2103 74.8856 28.1757 74.8448C28.1106 74.7796 27.9807 74.7016 27.9807 74.6497C28.0587 74.6176 28.8324 74.2468 28.787 73.4792C28.7415 72.7904 28.4492 72.4325 28.2409 72.1792C28.2087 72.1466 28.5469 71.9062 28.5011 71.8282C28.4685 71.7827 28.0527 71.4767 28.0004 71.3138C28.0127 71.2166 28.0346 71.1209 28.0656 71.0279C28.111 70.8848 28.1436 70.787 28.1307 70.6898C28.0982 70.5273 27.9224 70.0785 27.8706 70.0331C27.916 70.046 28.2409 70.0331 28.2409 70.0331C28.2409 70.0331 27.9812 69.6169 27.9353 69.4219C27.8894 69.2269 27.7921 68.713 27.7403 68.6157C27.8509 68.6285 28.1239 68.6478 28.1239 68.6157C28.1372 68.5179 27.8834 68.3555 27.9953 68.2299C28.0733 68.2428 28.2229 68.3079 28.3656 68.4901C28.2876 68.2818 28.1577 67.8789 27.8843 67.7164C28.0129 67.671 28.4501 67.5536 28.8337 67.7812C29.2173 68.0088 29.348 68.3272 29.348 68.3272C29.348 68.3272 29.5756 68.5029 29.9271 68.7631C30.33 69.0816 30.8435 69.5346 31.663 69.8552C31.8387 69.953 32.287 69.953 32.6124 69.8878C32.754 69.8541 32.8898 69.7993 33.0153 69.7254C33.0606 69.6987 33.1085 69.6768 33.1584 69.6602C33.0885 69.5199 33.0081 69.3851 32.918 69.2569C33.0285 69.2569 33.1584 69.2702 33.1584 69.2702C33.1584 69.2702 33.2364 69.0944 32.8854 68.7558C32.9634 68.6778 33.0611 68.6272 33.0611 68.4957C32.9505 68.4828 32.7555 68.3204 32.7101 68.2552C32.7748 68.2098 32.8725 68.0602 32.9831 68.0148C32.8854 67.9367 32.6449 67.6114 32.5344 67.5793C32.64 67.5401 32.7422 67.4922 32.84 67.4361C32.84 67.4361 32.2939 67.293 32.1182 67.1759C31.9424 67.0474 31.6827 66.8249 31.5267 66.7598C31.3638 66.6946 31.0779 66.6625 30.9609 66.5322C31.0711 66.5647 31.2468 66.5322 31.3771 66.5322C31.4744 66.5322 31.5202 66.545 31.5524 66.545C31.5395 66.4996 31.5395 66.4019 31.7933 66.3697C31.9153 66.3513 32.0338 66.314 32.1443 66.2591C32.1443 66.2591 31.9034 66.2463 31.63 65.9861C31.3565 65.7259 31.1293 65.5181 30.9733 65.4855C30.8109 65.4529 30.5053 65.5961 30.3167 65.5828C30.0565 65.5506 29.9459 65.4203 29.9459 65.4203C29.9459 65.4203 29.0814 65.4983 27.1634 64.3282C25.505 63.3137 24.7832 62.4166 24.7832 62.4166C24.6281 62.3603 24.478 62.2906 24.3349 62.2083C23.7108 61.8834 22.8459 61.207 22.872 60.3224L22.8686 60.3288Z" fill="#B79947"/>
    <path fill-rule="evenodd" clip-rule="evenodd" d="M46.7908 21.3031C46.9412 21.352 47.0749 21.4421 47.1766 21.5633C47.4822 21.9143 47.6772 22.5774 46.9815 23.2863C47.2546 23.3836 47.3673 23.4149 47.6056 23.3836C47.3652 23.6699 46.8191 24.2811 46.7865 24.8143C46.7539 25.2498 47.027 25.3801 47.027 25.3801C47.027 25.3801 46.6108 25.861 46.5915 26.6659C46.788 26.4443 47.0031 26.2398 47.2344 26.0547C47.7158 25.6711 48.3788 25.2357 48.8276 24.9626C48.8215 25.0771 48.8369 25.1916 48.873 25.3004C48.873 25.3004 49.7114 24.6112 50.416 24.9172C50.7345 25.0604 50.5914 25.5087 50.5914 25.5087C50.5914 25.5087 51.0273 25.3462 51.3329 25.6518C51.6385 25.9574 52.0705 26.7457 52.2921 27.0513C52.3894 27.1944 52.6431 27.4675 52.9029 27.8901C53.2577 28.4818 53.554 29.1066 53.7875 29.7558C53.8004 29.4177 53.8848 28.8913 54.8475 29.2226C55.8098 29.5608 56.9019 30.2698 57.8187 31.6658C58.7355 33.0618 58.9627 34.6378 59.4243 35.2379C59.8923 35.8165 60.3737 36.7787 60.4062 37.1821C60.4388 37.5854 60.2631 38.8854 61.2253 42.403C61.4984 41.3109 61.9146 38.8854 61.9146 38.8854L62.1421 36.7462L62.4023 30.127L55.4904 24.3849L50.0873 20.4639L46.5696 20.802L46.7908 21.3031Z" fill="#B79947"/>
    <path fill-rule="evenodd" clip-rule="evenodd" d="M59.6328 31.1536C59.6328 31.1536 59.5351 30.5107 57.9098 29.4177C56.284 28.3384 55.0162 28.3384 53.8461 27.4216C52.9485 26.6998 52.0124 25.0415 51.4029 24.4954C50.811 23.9558 50.7137 22.3952 50.7137 22.3952L52.7098 20.7236L55.6784 16.4327L58.1879 13.6694L59.3906 15.341L61.0622 17.3045L61.9919 21.2448L62.3301 27.0123L59.6298 31.154L59.6328 31.1536Z" fill="#B79947"/>
    <path fill-rule="evenodd" clip-rule="evenodd" d="M59.5202 78.3457C59.5202 78.3457 59.563 78.3736 59.6458 78.419C64.2652 76.2547 68.4042 73.1869 71.8185 69.3966C71.7812 68.0808 71.7327 66.7319 71.6796 66.2321C71.5694 65.1722 71.6474 64.0929 71.6149 63.4689C71.5823 62.8448 71.2313 60.3022 71.0688 59.6456C70.8931 58.9889 70.5545 58.6636 70.503 58.6636C70.4576 58.6769 70.1842 59.8993 70.1842 60.2067C70.1842 60.514 70.119 61.2538 70.119 61.4424C70.0736 61.4291 70.0543 61.3138 70.0543 61.2666C69.9891 61.4291 69.9111 61.7154 69.8785 61.748C69.846 61.7805 69.924 61.4749 69.8785 61.4098C69.8331 61.3446 69.75 61.3772 69.768 61.2148C69.7757 61.1184 69.7909 61.0228 69.8134 60.9289C69.8134 60.9289 69.6184 61.2148 69.4756 61.943C69.3325 62.6648 69.3325 62.6845 69.2806 62.7492C69.2352 62.8276 68.975 63.0874 68.9617 63.1851C68.9489 63.3604 69.2026 63.5361 69.2219 63.6334C69.2348 63.7963 68.9943 64.5503 68.9163 64.9193C68.8383 65.2883 68.8709 66.0114 68.7877 66.3822C68.7226 66.7203 68.6591 66.9154 68.4367 67.0581C68.5991 67.0907 68.7551 67.1361 68.7551 67.1361C68.7551 67.1361 68.9827 68.0983 68.4041 68.9179C68.1962 69.2037 68.1444 69.334 67.9232 69.5942C67.4873 70.0751 67.1491 70.6229 67.1165 70.9791C67.094 70.874 67.0789 70.7674 67.0711 70.6602C67.0711 70.6602 66.3952 71.4471 66.1089 71.8959C65.7385 72.4745 65.2246 72.4419 65.0802 72.5851C64.9357 72.7283 64.9044 72.988 64.9516 73.1963C64.823 73.2285 64.5813 73.2743 64.4184 73.7749C64.3404 74.0347 64.1454 74.2893 63.8398 74.4642C63.5342 74.639 63.1634 74.6918 62.9748 74.7372C63.1373 74.7826 63.2024 74.7826 63.2804 74.8345C63.1831 74.9969 62.7344 75.2507 62.2337 75.576C61.7331 75.8816 61.4922 76.3299 61.3688 76.6227C61.2402 76.8957 61.0503 77.0714 60.7447 77.104C60.8733 77.182 61.0636 77.3637 61.1609 77.4225C61.0177 77.455 60.7752 77.455 60.3418 77.8258C59.8866 78.203 59.7306 78.3136 59.5223 78.3461L59.5202 78.3457Z" fill="#B79947"/>
    <path fill-rule="evenodd" clip-rule="evenodd" d="M50.4747 81.3592C50.7237 81.1847 50.9933 81.0418 51.2775 80.9336C52.2916 80.5307 53.3644 80.4527 53.7871 80.3228C54.1904 80.1943 54.5089 80.0168 55.0095 79.9195C54.9962 80.0335 54.985 80.1407 54.973 80.2418C53.4971 80.7058 51.9941 81.079 50.4726 81.3592H50.4747Z" fill="#E6DB9D"/>
    <path fill-rule="evenodd" clip-rule="evenodd" d="M53.6167 27.922L51.3215 24.6127L49.7154 23.377C49.7154 23.377 48.571 21.2708 48.493 21.2056C48.4279 21.1602 47.3486 21.0432 46.6594 20.9977L46.788 21.3162C46.9384 21.3651 47.0721 21.4552 47.1737 21.5764C47.4793 21.9274 47.6744 22.5905 46.9787 23.2994C47.2518 23.3967 47.3645 23.428 47.6028 23.3967C47.3623 23.683 46.8163 24.2942 46.7837 24.8274C46.7511 25.2629 47.0242 25.3928 47.0242 25.3928C47.0242 25.3928 46.608 25.8741 46.5887 26.6786C46.7852 26.457 47.0003 26.2525 47.2316 26.0674C47.7129 25.6817 48.376 25.2479 48.8248 24.9749C48.8187 25.0894 48.8341 25.2042 48.8702 25.3131C48.8702 25.3131 49.7086 24.6238 50.4132 24.9294C50.7317 25.0726 50.5885 25.5214 50.5885 25.5214C50.5885 25.5214 51.0244 25.3589 51.33 25.6645C51.6356 25.9701 52.0711 26.7566 52.2923 27.0627C52.3896 27.2058 52.6433 27.4789 52.9031 27.901C53.258 28.4928 53.5543 29.1179 53.7877 29.7672C53.8006 29.5071 53.8529 29.1432 54.3021 29.1432L53.6193 27.9208L53.6167 27.922Z" fill="#B79947"/>
    <path fill-rule="evenodd" clip-rule="evenodd" d="M19.2071 37.3245C19.2071 37.3245 19.0447 36.9212 19.2071 36.1347C19.3696 35.3482 19.6233 34.9774 19.7077 33.8202C19.7922 32.6629 20.5465 31.2193 20.5465 31.2193L22.6335 30.2704L24.1096 30.6733L24.5451 32.65L22.6789 33.6787C22.6789 33.6787 22.5816 34.1142 22.0548 34.4652C21.5281 34.8163 20.7999 35.0893 20.6246 35.4472C20.5198 35.6664 20.4433 35.898 20.397 36.1364C20.397 36.1364 19.8638 36.0258 19.5453 36.3769C19.2071 36.7348 19.22 37.0532 19.2071 37.3263V37.3245Z" fill="#E6DB9D"/>
    <path fill-rule="evenodd" clip-rule="evenodd" d="M38.7521 25.9977C38.9607 25.9471 39.1608 25.8659 39.3457 25.7569C39.2677 25.9652 39.2677 26.1928 38.9295 26.687C38.5913 27.1812 38.5785 27.2527 38.3055 27.7662C38.0324 28.2994 37.9999 29.0666 37.7397 29.4044C37.8563 29.3477 37.9814 29.3105 38.11 29.2942C38.11 29.2942 37.8503 29.5218 37.7397 29.7623C37.6291 30.0027 37.4341 30.5034 36.9532 30.8094C36.4723 31.1154 35.8606 31.31 35.204 32.0318C34.5469 32.7403 33.871 33.6378 33.5324 33.9606C33.7081 33.655 33.9486 33.0438 34.0137 32.6409C34.0789 32.238 34.0004 31.7562 34.111 31.2234C34.2216 30.6907 34.2216 30.3066 34.7539 29.3765C35.2863 28.4464 36.1975 25.2151 36.1975 25.2151L38.161 24.591L38.7529 25.9956L38.7521 25.9977Z" fill="#B79947"/>
    <path fill-rule="evenodd" clip-rule="evenodd" d="M37.3365 24.8079C37.3365 24.8079 36.7451 25.6595 36.5826 26.4139C36.4202 27.1683 36.5693 27.1031 36.472 27.4739C36.4138 27.6999 36.4138 27.937 36.472 28.1631C36.6769 27.8331 36.9574 27.5566 37.2903 27.3564C37.8496 27.0187 38.3048 26.7778 38.5761 26.4919C38.8491 26.1863 39.0767 25.6857 39.6682 25.3021C39.4278 25.2695 39.0896 25.1589 39.0253 25.1735C39.2662 24.9005 39.9875 24.4843 40.7158 23.9836C41.4375 23.4693 41.3921 23.2619 42.5627 22.7484C42.1791 22.8135 41.9969 22.7158 41.678 22.7484C41.8066 22.4753 42.2566 22.345 42.7067 21.8967C43.1567 21.4484 42.4208 20.7849 42.4208 20.7849L38.9919 22.859L37.334 24.8096L37.3365 24.8079Z" fill="#B79947"/>
    <path fill-rule="evenodd" clip-rule="evenodd" d="M28.0323 23.2603L28.1103 22.6362L29.0923 21.0628L30.1197 18.2995V14.5217L30.0417 12.337L30.2041 10.9063L30.3276 10.4515L30.4579 10.2758L31.2962 10.7113L32.4539 12.2847L32.5645 15.3215L31.4394 20.1134L28.2273 23.6182L28.0323 23.2603Z" fill="#CAAE5B"/>
    <path fill-rule="evenodd" clip-rule="evenodd" d="M30.5875 20.3081C30.5875 20.3081 31.359 18.4093 31.7122 16.7253C31.7773 16.3871 31.9072 16.0494 31.9398 15.7763C32.1022 14.1832 32.1476 13.5265 31.9398 12.6552C31.7773 12.0122 31.1532 11.4327 30.8279 10.9835C30.5095 10.5151 30.3599 10.3406 30.425 10.242C30.4902 10.1435 30.7435 9.9823 30.9904 10.0016C31.2528 10.0092 31.5109 10.0702 31.7491 10.1807C31.9872 10.2912 32.2004 10.449 32.3757 10.6445C32.8763 11.2231 33.2728 13.1871 33.2728 13.1871L33.6898 15.7785L34.7498 19.0424L30.5883 20.3107L30.5875 20.3081Z" fill="#B79947"/>
    <path fill-rule="evenodd" clip-rule="evenodd" d="M37.8365 18.3318C37.8365 18.3318 37.6933 18.3965 37.4336 18.3318C37.4446 18.438 37.4262 18.5451 37.3803 18.6415C37.3344 18.7378 37.2628 18.8196 37.1734 18.8779C36.9004 18.7673 34.3445 18.9885 34.3445 18.9885C34.3445 18.9885 33.1547 18.7802 32.7839 17.2067C32.5242 16.1596 32.9789 14.7164 32.8294 13.7671C32.6018 12.3689 32.2833 12.0955 32.2507 11.6604C32.2182 11.2254 32.1856 11.1144 32.1856 10.8413C32.0424 10.8087 31.958 10.7633 31.8153 10.7633C31.7827 10.6347 31.8474 10.5224 31.7047 10.2948C31.7827 10.3274 32.3159 10.3926 32.9399 10.9841C33.4543 11.4654 33.4543 11.6407 33.5319 11.7384C33.6292 11.8357 34.4161 12.5099 34.7543 13.182C35.0925 13.8541 35.7491 15.9972 35.8987 16.3482C35.9441 16.4913 36.0418 16.6345 36.2844 16.9594C36.6616 17.4279 37.2141 18.2024 37.8382 18.331L37.8365 18.3318Z" fill="#987938"/>
    <path fill-rule="evenodd" clip-rule="evenodd" d="M33.6233 11.7711C34.0172 12.4074 34.3711 13.0676 34.6829 13.7479C35.0665 14.6124 35.2941 15.3214 35.7754 15.9C35.5153 15.1461 35.0536 13.6635 34.7806 13.1367C34.475 12.5795 33.8509 11.979 33.6233 11.7711Z" fill="#A88F33"/>
    <path fill-rule="evenodd" clip-rule="evenodd" d="M28.4194 26.6542L29.0114 25.9131V25.3864C29.0114 25.3864 29.668 25.2106 30.3765 24.4888C31.085 23.767 32.067 22.3822 32.9319 22.4666C33.7969 22.5643 33.8813 24.3457 33.9139 24.8467C33.9465 25.3478 34.057 26.4849 34.2323 27.0965C34.4274 27.7077 32.1257 30.0223 32.1257 30.0223L30.5625 31.2121L28.4194 26.6542Z" fill="#D8C47C"/>
    <path fill-rule="evenodd" clip-rule="evenodd" d="M51.8677 20.1779C51.0996 19.8979 50.2923 19.74 49.4752 19.7098C48.1096 19.6644 46.1136 19.7424 44.1565 19.7553C42.0498 19.7681 40.1382 19.0335 37.4855 18.9036C37.05 18.6434 35.9425 17.5054 32.4853 19.9177C32.6931 19.9048 34.9952 19.3845 35.7946 20.3862C36.6008 21.381 36.3732 23.0715 36.2631 23.4744C36.0548 24.3719 35.3784 25.6787 35.1058 26.5955C34.8332 27.5124 34.8975 27.9941 34.7025 28.637C34.5075 29.28 34.0784 29.5993 34.3317 30.3404C34.6699 30.1325 34.8461 30.1325 35.411 28.8646C35.9759 27.5968 35.8598 26.6928 36.7963 25.62C37.7131 24.5408 39.2394 23.0646 39.8197 22.6938C40.4001 22.3231 45.0082 19.9306 49.8331 22.2129C50.9968 22.0895 51.8677 20.1779 51.8677 20.1779Z" fill="#B79947"/>
    <path fill-rule="evenodd" clip-rule="evenodd" d="M34.4294 19.2932C34.4247 19.2444 34.4139 19.1963 34.3973 19.1501C34.3522 19.055 34.2929 18.9673 34.2215 18.8899C34.2215 18.8899 33.0771 18.682 32.4985 18.7467C31.484 18.8573 30.5672 20.1123 30.1381 20.7561C29.7091 21.3999 29.1759 22.3943 28.5972 22.9082C28.6036 22.8581 28.592 22.8074 28.5647 22.765C28.5647 22.765 28.5972 22.8105 28.5325 22.8756C28.4678 22.9408 28.4674 22.9729 28.4999 23.0042L28.5977 23.1015C28.6298 23.1015 29.5273 22.6982 30.7498 21.5585C32.0502 20.3686 33.045 19.7583 33.5653 19.5491C33.8428 19.4312 34.1325 19.3453 34.4294 19.2932Z" fill="#B79947"/>
    <path fill-rule="evenodd" clip-rule="evenodd" d="M56.6278 14.4043C56.6278 14.4043 56.4195 14.664 56.1593 14.9503C55.5807 15.5615 54.8263 16.2503 54.1825 16.9593C53.5718 17.6356 52.8825 18.1624 52.1085 19.0466C51.3344 19.9309 50.4368 20.9124 50.2097 21.1987C50.0018 21.485 49.8394 21.9531 49.8394 22.1935C49.7288 22.1155 49.5989 22.0311 49.5989 22.0311C49.6536 22.1332 49.719 22.2291 49.7939 22.3174C49.9564 22.545 50.2097 22.8317 50.34 23.0066C50.4998 23.2292 50.6146 23.481 50.6777 23.7477C50.7557 23.7606 51.2564 23.8583 51.8809 22.8309C52.5054 21.8035 53.324 20.6788 53.324 20.6788L54.6244 18.7475L55.444 17.1093L56.4726 15.2757L56.6291 14.4043H56.6278Z" fill="#987938"/>
    <path fill-rule="evenodd" clip-rule="evenodd" d="M57.9606 13.0914C57.9606 13.0914 57.1736 13.7343 56.868 14.1201C56.5624 14.5058 55.8394 15.5182 55.8394 15.5182L56.0995 15.4857L57.4197 14.3155L57.934 13.3987L57.9602 13.0931L57.9606 13.0914Z" fill="#A88F33"/>
    <path fill-rule="evenodd" clip-rule="evenodd" d="M57.7213 64.7631C57.7213 64.7631 57.7084 64.2299 58.0076 63.9114C58.3132 63.5925 59.0868 63.1245 59.8412 61.3689C60.5956 59.6133 60.6796 59.2168 60.6796 59.2168C60.6796 59.2168 59.3273 60.3741 58.4936 60.6471C58.6887 60.2438 58.7992 59.9579 58.897 59.7496C58.7864 59.6523 58.3183 59.5417 58.2729 59.4898C58.5326 59.2296 58.6758 58.5923 59.2026 58.1697C59.8789 57.6553 61.1142 56.7715 62.0743 55.9837C63.0344 55.1959 64.922 53.3636 65.1629 52.8304C65.3061 53.0383 65.3382 53.1681 65.3382 53.1681C65.3382 53.1681 64.3893 54.4039 63.8951 55.1904C63.4592 55.8667 63.4917 56.2503 63.4917 56.2503L64.3893 55.8646C64.3893 55.8646 64.649 56.8268 63.4724 58.2901C63.9868 58.0951 64.1942 58.2121 64.4866 58.0492C64.0052 58.3553 63.3421 58.7715 62.7181 59.9154C62.1069 61.0598 61.2745 62.3928 59.8704 63.2248C58.5048 64.1026 57.7178 64.7592 57.7178 64.7592L57.7213 64.7631Z" fill="#A67A2E"/>
    <path fill-rule="evenodd" clip-rule="evenodd" d="M54.1969 20.8547C54.1969 20.8547 53.6637 21.9661 53.5857 22.831C53.5728 23.0393 53.5206 23.2018 53.5206 23.4422C53.5077 24.2159 53.566 25.0808 53.392 25.4837C53.3268 25.3213 53.2942 25.2107 53.2291 25.146C53.1318 25.419 52.9561 26.2707 52.8129 26.5891C52.7482 26.3813 52.605 25.6595 52.6183 24.8078C52.6316 23.9561 52.6505 23.7933 52.6505 23.618C52.6183 23.8777 52.4426 24.2292 52.3774 24.437C52.2801 24.2617 52.1696 24.0341 52.0393 23.8456C51.9613 23.9741 51.864 24.164 51.7795 24.2617C51.7662 24.1837 51.7341 23.9754 51.7144 23.6831C51.7015 23.3449 51.6818 22.9095 51.7015 22.8182C51.7337 22.6429 52.0071 21.9536 52.5857 21.3227C53.275 20.5684 53.9839 19.1188 54.1918 18.67C54.3996 18.2212 55.2839 16.3555 55.2839 16.3555H55.9602L54.9783 18.592C54.9783 18.592 54.3868 19.8144 54.0812 20.2636C53.7756 20.7128 53.1318 21.9999 52.8455 22.5006C53.0534 22.2275 53.2291 22.0844 53.4374 21.8242C53.6389 21.642 54.1978 20.8555 54.1978 20.8555L54.1969 20.8547Z" fill="#806638"/>
    <path fill-rule="evenodd" clip-rule="evenodd" d="M57.9731 13.0065C57.8627 13.3466 57.6881 13.6623 57.4588 13.9366C57.0555 14.418 56.1905 15.0613 55.7683 15.5748C55.3826 16.0754 54.6111 17.441 54.9617 19.0599C55.0903 18.7088 55.3324 18.0132 55.9762 17.2263C56.62 16.4393 57.3092 15.5358 57.6478 14.8337C57.9856 14.1248 58.031 13.5659 58.031 13.5659L58.1596 13.4034L58.0816 13.0327L57.971 13.0065H57.9731Z" fill="#B79947"/>
    <path fill-rule="evenodd" clip-rule="evenodd" d="M58.0082 12.928L57.9757 13.006C57.9757 13.006 58.073 13.0386 58.0537 13.1689C58.0551 13.3472 58.0442 13.5253 58.0211 13.7021C57.989 13.9297 57.9238 14.105 57.9109 14.2482C57.9109 14.5538 57.9564 14.9048 57.5252 15.7762C57.3966 16.0166 57.3173 16.2245 57.2522 16.3677C57.0897 16.7187 57.0571 16.771 56.914 16.9335C57.1416 16.8049 57.9611 16.2905 58.3769 16.3677C58.091 16.5301 57.6551 16.849 57.382 17.2652C57.4472 17.2781 57.7202 17.3303 58.1535 17.2652C58.8753 17.1546 59.6816 16.8944 60.3901 16.9463C61.1642 16.9917 60.8585 16.0166 60.8585 16.0166L59.9653 14.0531L58.2748 12.8637L58.0082 12.928Z" fill="#B79947"/>
    <path fill-rule="evenodd" clip-rule="evenodd" d="M62.4159 27.6361C62.4159 27.6361 61.6615 26.8818 61.3559 24.2929C61.0503 21.6921 61.1155 17.8637 61.1155 17.8637L60.5043 16.3682C60.5043 16.3682 60.3757 15.3734 60.0555 15.0031C59.7353 14.6328 59.1065 14.0083 58.8202 13.7027C58.5339 13.3971 58.209 12.9809 58.014 12.9157C58.1113 12.7533 58.5472 11.8365 60.2179 11.8236C61.8887 11.8108 62.4039 12.7404 62.5783 13.0786C62.7528 13.4168 63.5406 14.8788 63.8329 17.6648C64.1059 20.4474 64.1192 20.6557 64.0738 21.6179C64.0412 22.1511 63.8655 23.3864 63.5594 24.7061C63.28 25.8248 62.9744 27.0734 62.415 27.6387L62.4159 27.6361Z" fill="#987938"/>
    <path fill-rule="evenodd" clip-rule="evenodd" d="M60.0494 29.8537C60.3008 29.8718 60.5519 29.8151 60.7711 29.6908C61.0116 29.6779 61.883 29.7885 62.5525 28.9369C62.5979 29.1315 62.7154 29.6587 62.4093 30.1267C62.5722 29.9638 62.8126 29.8991 62.8452 29.8537C62.8581 30.0941 63.0857 30.8352 62.1234 32.6363C62.3832 32.3504 62.6888 32.3632 62.9618 32.3307C62.9751 32.6688 63.1568 33.8064 62.6759 34.418C62.3575 34.8342 61.8371 34.7039 61.8371 34.7039C61.8447 34.6131 61.8447 34.5217 61.8371 34.4309C61.8242 34.2551 61.7591 34.0798 61.805 33.9628C61.5535 33.848 61.3245 33.6894 61.1286 33.4943C60.5628 32.9611 59.8282 32.0512 59.7763 31.3748C59.7112 30.6205 60.3875 30.458 60.3875 30.458C60.3309 30.4073 60.2826 30.348 60.2444 30.2823C60.2118 30.1721 60.1792 29.9964 60.0494 29.8537Z" fill="#806638"/>
    <path fill-rule="evenodd" clip-rule="evenodd" d="M55.0361 21.6738C55.0361 21.6738 55.0035 21.6284 54.8282 21.8362C54.8608 21.6284 54.8933 21.4329 54.9062 21.2443C54.9892 21.0697 55.0965 20.9078 55.2251 20.7634C55.1274 20.958 55.0622 21.1337 55.0622 21.1337C55.0622 21.1337 55.3031 20.685 55.6541 20.412C55.8946 20.2169 56.2002 20.1261 56.3301 19.9439C56.4732 19.7489 56.4407 19.7163 56.4732 19.6837C56.4732 19.6837 56.7921 19.4759 57.2799 18.8642C57.3446 18.7862 57.4423 18.7018 57.5075 18.6238C57.6176 18.5783 57.8778 18.4613 58.1834 18.3049C58.5023 18.1296 58.8598 17.8891 59.0809 17.7905C59.5164 17.5955 59.9785 17.6152 60.1928 17.3092C60.3552 17.2638 60.5305 16.776 60.4984 16.3602C60.7388 16.4575 61.9741 17.2248 62.3971 18.9024C62.7027 20.0922 62.1563 21.9258 61.9287 22.8105C61.7011 23.6952 61.6689 24.3514 61.35 24.7543C60.9467 25.2879 59.6467 26.0401 59.3278 26.4126C59.0548 26.7182 58.2357 27.4918 58.2678 28.0508C58.3004 28.4669 58.8139 28.6937 58.9249 28.7725C59.0359 28.8514 59.0351 28.9483 59.2434 28.9011C59.4517 28.854 59.5293 28.758 59.6141 28.758C59.7114 28.7708 59.7114 28.7906 59.7569 28.7906C59.7898 28.7896 59.8226 28.7851 59.8546 28.7773C59.8546 28.7773 59.822 29.3692 58.4371 29.5488C58.3394 29.5621 58.2421 29.5942 58.1183 29.6139C58.2811 29.5359 58.3784 29.5359 58.5542 29.2955C58.3591 29.2629 57.7998 29.2303 57.6566 29.1849C57.7021 29.1069 57.8517 28.8986 57.9751 28.8013C58.0857 28.704 57.9622 28.6727 57.8649 28.7233C57.6974 28.8372 57.5367 28.9609 57.3836 29.0936C57.2212 29.2367 57.078 29.4318 56.8178 29.6079C56.7398 29.3478 56.7527 28.8536 57.0587 28.4961C56.9803 28.509 56.8307 28.7365 56.688 28.6911C56.6622 28.454 56.6775 28.2141 56.7334 27.9822C56.8114 27.6894 57.234 27.176 57.234 27.176L59.2755 23.528L59.711 20.7647L55.0361 21.6738Z" fill="#806638"/>
    <path fill-rule="evenodd" clip-rule="evenodd" d="M54.9235 21.8298C54.9235 21.8298 54.8129 21.9078 55.0341 22.0574C55.0015 22.1028 54.9235 22.2653 54.8257 22.3758C54.7156 22.5044 54.5982 22.5842 54.5527 22.6947C54.4554 22.9223 54.3774 23.0783 54.3774 23.1761C54.3774 23.2738 54.3448 23.8979 54.0718 24.3008C53.9741 24.4439 53.8635 24.6844 53.7855 24.8468C53.6231 25.1327 53.4799 25.3612 53.4473 25.4897C53.3826 25.7173 53.3372 26.3414 53.3372 26.3414C53.3372 26.3414 53.4803 26.1657 53.5322 26.101C53.4537 26.2634 53.3693 26.4387 53.2459 26.569C53.3239 26.5039 53.5515 26.3414 53.9351 26.0032C54.4683 25.5549 55.3007 24.8005 56.3152 24.203C56.0092 24.3136 55.7494 24.3136 55.5415 24.3462C55.704 24.1838 57.1669 22.4671 57.9341 22.3047C57.9807 22.2456 58.0038 22.1715 57.9992 22.0964L57.3422 22.0317L56.0092 22.3176L55.8146 21.2889L54.9235 21.8285V21.8298Z" fill="#987938"/>
    <path fill-rule="evenodd" clip-rule="evenodd" d="M57.0439 27.6818C57.0439 27.6818 56.8682 27.8572 56.7057 28.2931C56.5807 28.1625 56.4734 28.0159 56.3868 27.8572C56.1464 27.4543 55.7761 26.9403 54.9111 27.2331C54.8982 26.9601 54.8785 26.8169 54.9111 26.6219C55.0543 26.5897 55.4897 26.2387 55.9252 25.7248C56.2313 25.3737 56.5171 24.9704 56.7122 24.4569C56.8407 24.3592 57.0632 24.1968 57.3551 24.0082C57.7713 23.7223 58.2719 23.3318 58.3499 22.8963C58.1549 22.9743 57.7387 23.1694 57.1142 23.1372C57.3551 23.0266 57.7254 22.9096 57.68 22.4283C57.7777 22.3631 57.8557 22.3177 57.8557 22.3177C57.7824 22.2933 57.7053 22.2822 57.6281 22.2851C57.6148 22.2397 57.5955 22.175 57.485 22.2071C57.3744 22.2393 57.3564 22.2397 57.3418 22.2851C57.2964 22.2984 57.1468 22.2851 57.0362 22.3636C56.9256 22.442 56.62 22.7013 56.503 22.7468C56.5484 22.6687 56.6131 22.5522 56.6131 22.5522C56.6131 22.5522 56.2947 22.5843 56.0671 22.6807C55.6509 22.8239 55.17 23.0841 54.6822 23.3374C54.7277 23.2594 54.7474 23.2088 54.7795 23.1942C54.8117 23.1797 54.8901 23.1621 54.8901 23.1488C54.8901 23.1355 54.858 23.0202 54.8772 22.9735C55.0231 22.6646 55.1951 22.3687 55.3916 22.0893C55.6192 21.7832 55.6646 21.3477 55.6646 21.3477L56.6594 20.8471L59.4553 20.2042L61.2696 20.3148L61.042 21.5698L59.9705 23.7609L59.0537 25.7569L58.0066 26.9798L57.0439 27.6818Z" fill="#483925"/>
    <path fill-rule="evenodd" clip-rule="evenodd" d="M61.5771 22.2507C61.5771 22.2507 60.4845 23.603 60.1789 23.8113C60.3739 23.3951 61.5771 20.9177 62.0125 20.2285C61.9152 20.1505 61.7849 20.1505 62.0905 18.9426C61.8308 19.5534 61.7395 19.8723 61.5252 20.0347C61.3109 20.1972 61.2843 20.1453 61.1394 20.1453C61.1668 20.0958 61.178 20.039 61.1716 19.9829C61.1716 19.9829 60.2548 19.8723 59.6286 19.8723C59.0024 19.8723 57.7628 20.2105 57.0731 20.4835C56.5271 20.7111 56.2215 20.7111 56.0265 20.8538C55.8314 21.0163 55.7209 21.192 55.6231 21.2374C55.5451 21.2829 55.1748 21.3999 55.0899 21.5233C55.0119 21.6519 54.8821 21.7964 54.8821 21.8289C54.8821 21.8615 54.8495 21.9074 54.9472 21.8744C54.9794 21.8615 55.2202 21.7312 55.4933 21.5688C55.8636 21.3609 56.3124 21.1204 56.6377 20.9773C57.5673 20.6065 57.8601 20.6717 58.2758 20.5937C58.7113 20.5156 59.3358 20.3335 59.7516 20.3335C60.1678 20.3206 60.9547 20.3335 61.1369 20.3661C61.0589 20.4312 60.9937 20.5092 61.0263 20.7822C61.0263 20.8603 60.9611 20.9447 60.8977 21.1333C60.7031 21.6665 60.3324 22.5507 60.1262 22.9995C59.8403 23.6103 59.5154 24.1242 59.3547 24.4426C59.1939 24.7611 58.8403 25.5999 58.4902 26.0487C58.14 26.4974 57.957 26.7704 57.8472 26.8682C57.7375 26.9659 56.9497 27.5441 57.0084 27.7524C57.1516 27.707 58.0555 27.3667 58.7118 26.6277C59.368 25.8888 59.4987 25.4379 60.0122 25.0346C60.5257 24.6312 60.929 23.9553 61.1694 23.3964C61.3709 22.876 61.3255 22.7136 61.5788 22.252L61.5771 22.2507Z" fill="#62593C"/>
    <path fill-rule="evenodd" clip-rule="evenodd" d="M38.0322 32.344C38.0322 32.344 37.889 32.9355 37.5637 33.2283C37.2452 33.5146 36.6795 33.7615 36.6147 34.2428C36.5367 34.7237 37.1805 34.9646 37.1805 34.9646C37.1805 34.9646 36.8291 35.5432 36.8291 35.9787C36.8291 36.4275 36.8162 36.5119 36.8616 36.9409C36.8101 36.9741 36.7662 37.018 36.733 37.0695C36.733 37.0695 36.7652 37.4857 37.0841 37.7455C37.403 38.0052 37.6756 38.1616 37.838 38.0965C37.8628 38.1495 37.8846 38.2039 37.9032 38.2594C37.9032 38.2594 38.144 37.6482 38.3065 37.115C38.4689 36.5689 38.6121 36.6465 38.6768 35.9118C38.7415 35.1772 39.4483 33.9158 39.4483 33.9158L39.9305 32.8378L39.144 32.2266L38.0322 32.344Z" fill="#806638"/>
    <path fill-rule="evenodd" clip-rule="evenodd" d="M39.4966 33.4033C39.3344 33.5698 39.1847 33.748 39.0487 33.9365C38.8408 34.2228 38.6784 34.4825 38.3728 34.5936C38.0672 34.7046 37.8721 34.7037 37.8914 35.0097C37.9107 35.3158 38.197 35.4452 38.3595 35.6012C38.5352 35.7637 38.6784 36.0367 38.6004 36.3427C38.6977 36.2973 38.8734 36.245 39.0358 35.894C39.1983 35.5429 40.3346 33.4037 40.3346 33.4037L39.4966 33.4033Z" fill="#483925"/>
    <path fill-rule="evenodd" clip-rule="evenodd" d="M42.3684 32.428C42.3684 32.428 42.0821 31.9925 42.4335 31.6085C42.785 31.2245 43.2852 31.0624 43.4802 30.822C43.4431 30.7762 43.3933 30.7424 43.3371 30.7247C43.4665 30.493 43.664 30.3068 43.9028 30.1911C43.8055 30.0938 43.6752 30.0158 43.5325 30.0158C43.2136 30.0158 43.0182 30.2108 42.7258 30.2108C42.44 30.2108 42.4074 30.0676 42.4074 30.0676C42.4074 30.0676 42.8887 30.0222 42.8429 29.8074C42.7974 29.5799 42.7143 29.5799 42.7143 29.5799C42.7143 29.5799 43.6439 29.1941 43.8064 28.9884C43.9688 28.7826 43.9495 28.5396 43.9821 28.4423C44.0923 28.4423 44.7361 28.1041 44.9962 28.2473C45.2564 28.3904 45.0742 28.7805 45.0742 28.7805C45.0742 28.7805 45.8616 28.1886 46.2628 27.6082C46.6138 27.6408 46.7771 27.3678 47.0343 27.3678C47.3532 27.3678 47.8538 27.8032 47.9511 28.7329C48.0163 29.2661 48.1136 29.5717 48.0163 30.5147C47.9708 31.0479 47.9837 32.1863 48.1448 32.7512C48.255 33.1999 48.5152 33.1545 48.5152 33.1545C48.4753 33.2913 48.3961 33.4133 48.2876 33.5056C48.1118 33.668 48.0926 34.0975 48.1118 34.2599C48.1378 34.3787 48.1704 34.4959 48.2096 34.611C48.2096 34.611 48.0017 34.8514 47.9494 35.0143C47.904 35.1767 47.6897 35.2873 47.5332 35.2873C47.3768 35.2873 47.4552 35.274 47.2473 35.2873C47.0394 35.3006 46.9743 35.3327 46.844 35.2873C46.7137 35.2419 46.6164 35.1896 46.6687 34.773C46.7141 34.3568 45.0627 33.3881 45.0627 33.3881L42.3624 32.4259L42.3684 32.428Z" fill="#B79947"/>
    <path fill-rule="evenodd" clip-rule="evenodd" d="M39.2652 36.5373C39.2652 36.5373 39.8567 37.3242 42.2886 37.3242C43.4459 37.3242 43.8492 37.2136 44.0888 37.1485C44.349 37.0833 45.3241 36.7002 46.3061 35.5425C47.1903 34.4958 46.9953 34.0667 46.9953 34.0667L46.4809 33.9887L44.8093 34.2163L39.8631 36.323L39.263 36.5373H39.2652Z" fill="#62593C"/>
    <path fill-rule="evenodd" clip-rule="evenodd" d="M41.082 36.7324C41.082 36.7324 38.9753 37.2009 38.9753 35.8679C38.9753 34.5675 40.2758 33.2019 40.6011 32.9615C40.9392 32.7206 41.7455 32.4471 41.7455 32.4471H43.6897L44.06 33.4291L43.8976 35.5486L41.082 36.7324Z" fill="#222014"/>
    <path fill-rule="evenodd" clip-rule="evenodd" d="M43.0268 32.8445C43.0268 32.8445 42.6239 32.4737 41.707 32.9731C40.7902 33.4724 40.0487 34.5161 40.0033 35.4638C39.9579 36.3021 40.6925 36.9266 41.8369 36.9592C42.6886 36.9913 43.2025 36.894 43.4627 36.8306C43.3975 36.7526 43.0593 36.33 43.0593 36.33L43.0268 32.8445Z" fill="#D8C47C"/>
    <path fill-rule="evenodd" clip-rule="evenodd" d="M42.6296 33.0518C42.6296 33.0518 42.5323 32.9738 42.2439 33.1298C42.0034 33.2584 41.6524 33.5983 41.3793 33.8387C41.2036 33.9819 41.093 34.0466 40.9936 34.1572C40.5903 34.6385 40.2521 35.4255 40.4475 35.8155C40.643 36.2056 41.2863 36.6543 42.9249 36.3487L42.6249 33.0522L42.6296 33.0518Z" fill="#E6DB9D"/>
    <path fill-rule="evenodd" clip-rule="evenodd" d="M42.0961 33.8583C42.0961 33.8583 41.8359 34.2617 41.8359 34.9055C41.8359 35.5621 42.2067 36.6088 43.5722 36.6868C44.6189 36.7519 45.321 35.1785 46.0818 34.5673C46.6604 34.0992 47.0115 34.0859 47.0115 34.0859C47.0115 34.0859 46.42 33.443 44.8401 32.6102C43.2795 31.7714 41.5303 31.6608 40.5809 32.9484C41.0297 32.9158 42.4797 32.5451 42.4797 32.5451L43.1886 32.7727L42.0961 33.8583Z" fill="#222014"/>
    <path fill-rule="evenodd" clip-rule="evenodd" d="M44.1373 34.7104C44.0919 34.6131 44.0593 34.4828 44.2479 34.4506C44.4365 34.4185 44.5209 34.4374 44.5861 34.5792C44.6512 34.7211 44.7146 34.8394 44.6182 34.8981C44.5209 34.95 44.2676 34.899 44.1373 34.7104ZM43.8317 33.7936C43.8317 33.7936 43.7665 33.839 43.7991 33.7481C43.812 33.638 43.8968 33.4425 44.1047 33.4884C44.3126 33.5343 44.2676 33.7614 44.2333 33.8266C44.199 33.8917 44.0254 34.0019 43.8951 33.9552C43.8786 33.9509 43.8633 33.9429 43.8505 33.9316C43.8377 33.9204 43.8277 33.9063 43.8213 33.8905C43.815 33.8746 43.8125 33.8575 43.814 33.8406C43.8155 33.8236 43.821 33.8072 43.83 33.7927L43.8317 33.7936Z" fill="#62593C"/>
    <path fill-rule="evenodd" clip-rule="evenodd" d="M26.23 34.2091C26.23 34.2091 26.7443 34.5949 27.3418 34.5799C27.9333 34.5666 28.6941 33.9558 29.0452 33.5654C29.253 33.3378 29.4309 33.0973 29.6238 32.9087C29.7867 32.7463 29.8968 32.6683 29.9748 32.5577C30.0854 32.4291 30.2024 32.1874 30.2611 32.1089C30.118 32.2195 29.9101 32.4149 29.6954 32.5448C29.4875 32.6734 29.0387 32.9151 28.8566 32.9803C28.6813 33.0454 26.8605 34.009 26.8605 34.009L26.23 34.2091Z" fill="#9F8E57"/>
    <path fill-rule="evenodd" clip-rule="evenodd" d="M27.019 29.4048C27.019 29.4048 27.3049 29.2098 27.8578 29.0859C28.391 28.9573 29.4639 28.8583 29.4639 28.8583L30.3481 29.2441L30.6991 30.5771L30.0562 31.9624L29.2371 32.4767L28.307 30.9813L27.0212 29.4074L27.019 29.4048Z" fill="#9F8E57"/>
    <path fill-rule="evenodd" clip-rule="evenodd" d="M25.8591 30.5945L25.5531 30.823C25.5531 30.823 25.6315 30.6798 25.6962 30.2443C25.7609 29.8089 26.0995 28.7489 26.5937 28.1377C27.0879 27.5265 27.0751 27.5591 27.0751 27.5591C27.0296 27.5507 26.9829 27.5522 26.938 27.5634C26.8932 27.5745 26.8512 27.5951 26.8149 27.6238C26.8801 27.4798 27.2962 26.9654 27.7124 26.7082C28.1286 26.4511 28.2911 26.3701 28.7265 26.5797C29.162 26.7893 29.2726 26.8981 29.5915 26.8853C29.9104 26.8724 30.183 26.5342 30.183 26.5342C30.183 26.5342 30.2481 26.7421 30.0077 27.2234C29.7672 27.7048 28.8178 28.6863 28.8178 28.6863L26.8411 30.0386L25.8591 30.5958V30.5945Z" fill="#D8C47C"/>
    <path fill-rule="evenodd" clip-rule="evenodd" d="M25.6056 30.9981C25.6056 30.9981 25.3325 31.1605 25.1894 31.7696C25.0462 32.3936 25.318 33.1544 25.4753 33.3949C25.6326 33.6353 25.9896 34.2924 26.7302 34.325C26.9136 34.324 27.0949 34.2864 27.2634 34.2144C27.522 34.0958 27.7645 33.9451 27.9852 33.7656C28.3041 33.5252 28.5639 33.3173 28.5313 33.2976C28.4533 33.265 26.5678 31.7044 26.5678 31.7044L25.8589 30.9132L25.6056 30.9981Z" fill="#62593C"/>
    <path fill-rule="evenodd" clip-rule="evenodd" d="M27.3876 33.5855C27.3876 33.5855 27.7712 33.5533 27.9988 33.4101C28.2264 33.267 26.6658 31.7197 26.6658 31.7197L26.7764 33.3913L27.3876 33.5855Z" fill="#483925"/>
    <path fill-rule="evenodd" clip-rule="evenodd" d="M25.7291 30.8807C25.7291 30.8807 25.5341 31.2514 25.5341 31.3491C25.5015 31.6676 25.5993 32.6688 25.6773 32.9873C25.7553 33.3255 26.1779 33.839 26.7244 33.839C27.0621 33.839 27.5306 33.6311 27.5306 33.5792C27.5306 33.5141 27.0493 33.4506 26.9194 33.2085C26.8414 33.0799 26.8088 32.7601 26.7908 32.437C26.778 32.2291 26.778 32.0015 26.856 31.9226C27.0317 31.7276 27.0639 31.1683 27.0639 31.1683L27.6879 30.0088H26.8671L25.8852 30.6201L25.7291 30.8807Z" fill="#987938"/>
    <path fill-rule="evenodd" clip-rule="evenodd" d="M25.4896 31.2384C25.4896 31.2384 26.1325 30.3868 26.712 30.1913C27.2915 29.9959 27.5508 30.1133 27.5508 30.1133L27.2126 30.9783L26.7313 31.5115L26.7639 31.7845C26.7639 31.7845 26.6854 32.5063 27.1668 33.0069C27.6481 33.5075 28.0056 33.4882 28.2139 33.4882C28.4222 33.4882 29.0201 33.3125 29.3257 32.5907C29.5988 31.9148 29.8263 31.0477 29.2803 30.1785C28.7467 29.3135 27.8041 29.2801 27.622 29.2801C27.4398 29.2801 26.0095 29.3517 25.4896 31.2372V31.2384Z" fill="#222014"/>
    <path fill-rule="evenodd" clip-rule="evenodd" d="M41.999 34.1315C41.7586 34.0209 41.9862 33.345 42.2266 33.1367C42.4671 32.9284 42.7727 32.6884 43.3063 32.6554C43.5009 32.6425 43.6895 32.7659 43.6573 32.8962C43.6119 33.1367 43.2737 33.4749 42.9681 33.7153C42.5455 34.0471 42.2721 34.255 41.999 34.1315Z" fill="white"/>
    <path fill-rule="evenodd" clip-rule="evenodd" d="M28.9943 30.4449C29.17 30.432 29.3976 30.5735 29.443 30.7638C29.4885 30.9717 29.3325 31.3879 28.9943 31.3879C28.7213 31.3879 28.5781 31.0497 28.5781 30.9524C28.5812 30.8724 28.6035 30.7943 28.6432 30.7248C28.6561 30.7051 28.6887 30.4775 28.9943 30.4449Z" fill="white"/>
    <path fill-rule="evenodd" clip-rule="evenodd" d="M26.4582 30.5948C26.4582 30.5948 26.0094 30.8027 25.8015 31.2377C25.653 31.559 25.6081 31.9185 25.6729 32.2664C25.7055 32.4289 25.868 32.8318 25.9785 32.9749C26.0891 33.1181 26.2387 33.2158 26.3493 33.2025C26.4599 33.1892 26.6871 32.8969 26.6871 32.7216C26.6871 32.5463 26.7003 31.8048 26.9146 31.4015C27.1032 30.9986 26.4595 30.5952 26.4595 30.5952L26.4582 30.5948Z" fill="#D8C47C"/>
    <path fill-rule="evenodd" clip-rule="evenodd" d="M26.5229 30.5619C26.4449 30.6073 26.315 30.6725 26.3471 30.7569C26.3797 30.8349 26.6527 30.8855 26.7505 31.0758C26.861 31.2708 26.861 31.4787 26.8285 31.5764C26.9134 31.5361 26.9905 31.4809 27.0561 31.4136C27.1992 31.2511 27.3745 31.0304 27.5241 31.0304C27.6218 31.0304 27.7191 31.0758 27.8104 31.0758C27.9536 31.0758 28.0963 31.0304 28.116 30.8808C28.1482 30.6858 27.843 30.51 27.6673 30.5426C27.6998 30.414 27.7453 30.2242 27.6021 30.0939C27.459 29.9636 27.0106 30.1916 26.9129 30.2567C26.8152 30.3219 26.5229 30.5619 26.5229 30.5619Z" fill="#E6DB9D"/>
    <path fill-rule="evenodd" clip-rule="evenodd" d="M36.856 44.2227L37.8183 43.9385L38.0913 44.1336C38.0913 44.1336 38.2859 44.5498 38.5919 44.6016C38.4942 44.8095 38.2405 44.9874 38.2537 45.1348C38.267 45.2823 38.3969 45.395 38.3969 45.395C38.3969 45.395 37.532 46.8253 39.2357 48.2667C38.8324 48.4292 38.3189 48.6525 38.0459 48.7811C38.2405 48.8265 38.6566 48.9096 38.8324 49.0674C39.0081 49.2251 39.0081 49.2753 39.1706 49.373C39.333 49.4707 39.4303 49.6006 39.3982 49.6589C39.2876 49.5937 38.9168 49.3991 38.8521 49.5809C38.7874 49.7626 37.2461 49.6914 37.2461 49.6914L34.6452 50.1921C34.6452 50.1921 34.7425 49.9319 34.4695 49.6914C34.151 49.4055 33.761 49.7043 33.3448 49.3858C32.7987 48.9696 32.779 48.4883 32.6037 48.3066C32.779 48.196 33.1369 48.0336 33.9886 47.9208C33.956 47.8557 33.8454 47.6607 33.9106 47.4853C33.9886 47.2578 34.3135 47.1146 34.2162 46.8424C34.3593 46.8098 34.4241 46.8098 34.7819 46.3611C35.1201 45.9123 35.328 45.815 35.5882 45.7825C35.8483 45.7499 36.0044 45.7825 36.4857 45.3337C36.8235 45.0152 36.7133 44.7422 36.7133 44.7422C36.7133 44.7422 36.9336 44.6715 36.856 44.2227Z" fill="#CAAE5B"/>
    <path fill-rule="evenodd" clip-rule="evenodd" d="M26.7969 54.2227C26.8476 54.2791 26.9068 54.3274 26.9722 54.3659C27.1351 54.4764 27.3756 54.6067 27.538 54.8013C27.6032 54.704 27.7656 54.5283 28.0523 54.8013C28.3391 55.0744 28.6953 54.8798 28.9169 54.9445C29.1445 55.0229 29.1573 55.0551 29.1573 55.0551C29.1573 55.0551 29.2859 54.9445 29.5735 54.8275C29.7492 54.7623 29.9571 54.7169 30.1847 54.6522C30.3926 54.6067 30.6202 54.5416 30.7766 54.5416C30.9198 54.6389 31.4333 55.1845 33.4945 54.3791C35.4387 53.6248 35.887 53.5403 36.2123 53.6569C36.2449 53.5789 36.2775 53.4293 36.7781 53.449C36.7781 53.2412 36.3619 52.5322 36.3619 52.5322L34.0667 51.7457H32.8113L29.0467 52.4349L26.9607 53.6252L26.7982 54.2253L26.7969 54.2227Z" fill="#CAAE5B"/>
    <path fill-rule="evenodd" clip-rule="evenodd" d="M25.5425 52.9032C25.5425 52.9032 25.5879 53.2542 26.1083 53.625C26.6226 53.9953 26.7842 54.2165 26.7842 54.2165C26.7842 54.2165 26.8819 54.0879 26.9599 53.9568C27.0379 53.8136 27.1031 53.6511 27.233 53.6057C27.4931 53.4951 28.0846 53.703 28.2149 53.6704C28.3255 53.6383 28.2929 53.4107 28.4099 53.4107C28.683 53.3974 28.8583 53.586 28.956 53.586C29.0537 53.586 29.2937 53.5731 29.3263 53.5213C29.3589 53.4694 29.3717 52.9294 29.7425 52.6692C30.1458 52.3833 30.64 52.5067 30.7712 52.5719C30.7712 52.6692 30.784 52.9101 31.0442 52.9229C31.3044 52.9358 31.3301 52.8904 31.5586 52.9684C31.787 53.0464 32.0592 52.9555 32.1826 53.3387C32.2932 53.3065 32.5534 53.274 32.4882 52.9032C32.6168 52.8059 32.7291 52.7408 33.0026 52.3572C33.0677 52.2599 33.1779 52.1493 33.2627 52.0061C33.4903 52.0061 33.7634 51.9607 34.1273 52.2791C34.0167 52.3572 33.9515 52.4077 33.9194 52.487C34.0145 52.5813 34.1014 52.6835 34.1791 52.7926C34.2768 52.9212 34.342 53.0789 34.4654 53.1115C34.7385 53.1895 35.1872 53.0789 35.6878 53.1115C36.1692 53.1441 36.5721 53.3194 36.7478 53.43C36.813 53.3978 36.813 53.3846 36.9754 53.4171C37.1379 53.4497 37.2613 53.4626 37.086 53.2547C37.1833 53.3001 37.2939 53.3978 37.3916 53.3001C37.4893 53.2024 37.5669 53.0597 37.8399 53.0271C38.113 52.9945 38.2107 53.0399 38.3213 52.7541C38.4644 52.403 37.9702 52.403 37.9702 52.403C37.9702 52.403 38.1978 52.1947 38.4516 51.9217C38.7572 51.6358 39.1082 51.265 39.1926 50.8099C39.3358 49.9711 38.5167 49.8609 38.5167 49.8609L34.5439 51.0833L29.6868 50.8424L25.5451 52.9036L25.5425 52.9032Z" fill="#987938"/>
    <path fill-rule="evenodd" clip-rule="evenodd" d="M21.9727 41.427C21.9727 41.427 21.8441 41.5894 21.7648 41.973C21.6856 42.3567 21.7194 42.3112 21.6543 42.5843C21.5891 42.8573 20.7889 45.5751 21.0889 46.4919C21.389 47.4088 21.9084 47.7469 22.2333 48.488C22.2985 48.6505 22.3619 48.7482 22.3958 48.8913C22.5064 49.3723 22.4091 49.743 22.5389 50.2243C22.5844 50.3868 22.7018 50.5754 22.8771 50.7704C23.2629 51.1733 23.8916 51.5569 24.163 51.8299C24.5461 52.2333 25.0926 53.0528 25.7883 53.1304C26.159 53.1758 26.6858 53.0198 27.1213 52.76C27.507 52.5192 27.7453 52.1814 28.15 51.9885C28.4358 51.8454 28.7414 51.7935 29.0145 51.7284C29.5802 51.6178 30.0942 51.5998 30.3998 51.6632C30.8678 51.7609 31.9732 52.0991 32.5857 52.0991C33.0643 52.0914 33.5402 52.0259 34.0031 51.9041C34.9328 51.6311 36.0575 51.1626 36.799 50.9547C37.2345 50.8261 37.5855 50.7923 37.9434 50.7142C38.5546 50.5711 39.0681 50.3761 39.3609 50.0053C39.1658 49.7777 38.9254 49.4267 37.6245 49.4395C36.1488 49.4721 34.445 50.2912 33.6062 50.4215C32.7674 50.5518 32.4035 50.662 31.467 50.3238C30.5489 49.9822 30.5185 49.7563 30.5185 49.7563C30.5185 49.7563 29.5545 49.0821 29.1512 47.3633C28.7479 45.6446 29.1512 44.3922 30.1983 43.2019C30.4713 42.8963 30.4062 42.6233 30.4062 42.6233C30.4062 42.6233 31.0954 41.6936 30.9068 40.8231C30.6989 39.9581 29.3659 40.1338 29.3659 40.1338L21.9727 41.427Z" fill="#62593C"/>
    <path d="M22.2921 39.9979C22.2485 40.0452 22.2006 40.0882 22.1489 40.1265C22.3572 39.4955 22.695 39.0926 23.4815 38.7095C24.2877 38.358 25.8419 38.2945 27.5649 38.808C29.288 39.3215 30.4585 39.8354 30.4585 40.9798C30.4585 41.3803 30.2449 41.5772 29.9277 41.8696C29.8021 41.9854 29.6603 42.1161 29.5091 42.2803C29.2495 42.5492 28.9656 42.9112 28.6952 43.256C28.5933 43.3859 28.4934 43.5134 28.3973 43.6325C28.0978 43.9981 27.8108 44.3229 27.5058 44.5913C27.9051 44.4927 28.0873 44.5352 28.1468 44.6337C28.1759 44.6819 27.9672 44.7641 27.6949 44.8713C27.2337 45.0529 26.59 45.3063 26.6105 45.5882C26.6184 45.6902 27.0374 45.8486 27.454 46.0061C27.8304 46.1483 28.2048 46.2898 28.2728 46.3885C28.3505 46.4933 28.4158 46.6068 28.4674 46.7266C28.4806 46.8565 28.4806 47.1493 28.2728 47.2924C28.0675 47.4432 27.8286 47.3141 27.4365 47.1021C27.4061 47.0857 27.3749 47.0688 27.3427 47.0515C26.8485 46.7785 26.2827 46.1999 26.2827 46.1999C26.1593 46.2715 26.0218 46.3154 25.8798 46.3284C25.723 46.3497 25.5712 46.3981 25.431 46.4716C25.431 46.4716 25.0419 45.3606 24.5605 45.5882C24.1334 45.788 24.0412 45.8186 24.0246 45.8187C24.0246 45.8153 24.0244 45.8131 24.0244 45.8131C24.0244 45.8131 24.0173 45.8188 24.0246 45.8187C24.0243 45.8505 24.003 45.9925 23.5983 45.5882C23.0719 45.0743 23.0196 44.8467 23.0068 44.6714C23.002 44.5794 23.0162 44.4877 23.0481 44.402C22.6038 43.9488 22.2594 43.3682 22.0512 42.7157C21.5929 41.273 22.1092 40.3315 22.2706 40.0373C22.2787 40.0225 22.2859 40.0094 22.2921 39.9979Z" fill="#222014"/>
    <path fill-rule="evenodd" clip-rule="evenodd" d="M30.4745 47.9811C30.4745 47.9811 30.3639 48.0462 30.3639 48.0788C30.3541 48.1103 30.3497 48.1432 30.351 48.1761C30.351 48.1954 30.4942 48.1632 30.5135 48.1435C30.5199 48.1307 30.4745 48.0149 30.4745 47.9811Z" fill="#62593C"/>
    <path fill-rule="evenodd" clip-rule="evenodd" d="M29.5082 47.6756C29.5729 47.6888 29.6835 47.6756 29.7679 47.7081C29.8331 47.7407 29.8785 47.8059 29.8134 47.8839C29.7482 47.9619 29.6848 48.0789 29.5403 48.0592C29.3779 48.0463 29.2219 47.9619 29.2219 47.8967C29.2191 47.8555 29.2246 47.8142 29.238 47.7751C29.2514 47.736 29.2724 47.7 29.2999 47.6691C29.365 47.6173 29.3976 47.6498 29.5082 47.6756Z" fill="#62593C"/>
    <path fill-rule="evenodd" clip-rule="evenodd" d="M22.017 48.2543C22.0643 48.263 22.1128 48.263 22.1601 48.2543C22.2574 48.241 23.272 47.8686 24.3319 47.9354C25.1254 47.9834 25.9119 48.1126 26.679 48.3212C28.012 48.6722 29.6699 49.3679 30.7427 49.7648C31.0286 49.8749 31.3085 50.0704 31.5143 50.148C32.3338 50.4668 32.3659 50.4668 32.8472 50.5513C33.413 50.6293 33.9917 50.4407 34.5964 50.3108C35.3375 50.148 36.6054 50.0699 37.7172 49.9075C38.0767 49.8577 38.4313 49.7772 38.7772 49.667C38.7772 49.667 37.8929 50.5513 35.773 50.8697C34.9161 50.9999 34.0453 51.0108 33.1854 50.9023C32.5091 50.8372 32.0607 50.7394 31.7226 50.6422C31.3389 50.5316 30.552 50.2388 29.5833 49.9992C28.907 49.8235 28.1526 49.6936 27.2881 49.5312C25.1553 49.1407 22.8408 48.6924 22.0161 48.2569L22.017 48.2543Z" fill="#222014"/>
    <path d="M20.637 39.3784C20.7293 39.4609 20.8219 39.5437 20.9121 39.6261C20.6845 39.4186 20.4638 39.209 20.2362 38.9823C20.0086 38.7556 19.7874 38.5473 19.5598 38.3394L18.8839 37.7153C18.828 37.6594 18.7704 37.6067 18.7128 37.5541C18.6566 37.5027 18.6004 37.4513 18.5457 37.3969L18.2273 37.078C17.3105 36.2267 16.4129 35.3939 15.4961 34.5551C16.1844 35.2177 16.8832 35.88 17.582 36.5423L17.585 36.5451C17.7839 36.7336 17.9828 36.922 18.1814 37.1105C18.2399 37.1622 18.3038 37.2176 18.3674 37.2726C18.424 37.3215 18.4804 37.3704 18.5324 37.4161C18.5883 37.4723 18.6459 37.5249 18.7034 37.5775C18.7597 37.6289 18.8159 37.6804 18.8706 37.735L19.547 38.378C19.7746 38.5858 20.0017 38.7941 20.2229 39.002C20.3563 39.1274 20.4967 39.2529 20.637 39.3784Z" fill="#B79947"/>
    <path fill-rule="evenodd" clip-rule="evenodd" d="M19.2732 40.8761C19.2208 40.8667 19.1685 40.8572 19.1163 40.8479C18.9361 40.8154 18.7569 40.7832 18.5779 40.7521L17.2127 40.5245L14.4816 40.089C14.3891 40.0758 14.2977 40.0625 14.2065 40.0493C14.0733 40.03 13.9403 40.0108 13.8052 39.9917L13.1164 39.9133C12.9233 39.8937 12.7301 39.873 12.5354 39.852C12.2779 39.8244 12.0174 39.7964 11.7509 39.7705C10.8398 39.6734 9.92881 39.5767 9.01779 39.499L9 39.4962L9.00043 39.4975L9.0624 39.5059C9.88472 39.6329 10.7071 39.7399 11.5294 39.8398L16.1399 40.4639L17.2127 40.6222L18.5779 40.8172C19.0266 40.8824 19.4947 40.9475 19.9434 40.993C19.8125 40.9711 19.6832 40.9488 19.5548 40.9262L19.9499 40.9797C19.9499 40.9797 19.6897 40.9397 19.2732 40.8761ZM9.02406 39.5L9.00043 39.4975L9.01779 39.499L9.02406 39.5ZM19.2732 40.8761C17.9351 40.6715 14.9829 40.2217 13.8575 40.0629C12.3436 39.8466 9.32109 39.5308 9.02406 39.5C9.03684 39.5019 9.04962 39.5039 9.0624 39.5059L11.5294 39.8398C11.6031 39.8488 11.6767 39.8577 11.7504 39.8665C11.9193 39.8862 12.091 39.9077 12.2633 39.9293C12.5488 39.9651 12.8362 40.0011 13.116 40.0294L13.8052 40.1087C13.9207 40.125 14.0345 40.1449 14.1483 40.1647C14.2588 40.184 14.3696 40.2033 14.4816 40.2193L16.1399 40.4639L19.5548 40.9262C19.4604 40.9096 19.3666 40.8928 19.2732 40.8761Z" fill="#B79947"/>
    <path d="M19.6239 41.8303L19.625 41.83L19.5745 41.8445C18.8175 42.0669 18.0641 42.2831 17.2961 42.487L16.8277 42.6126L13.2063 43.6253C13.0222 43.6791 12.838 43.7331 12.6537 43.7874L11.4964 44.1059C11.317 44.1576 11.1362 44.2064 10.9539 44.2551L10.3009 44.4377C10.3009 44.4377 10.3779 44.4143 10.513 44.3733C10.451 44.3902 10.3887 44.4073 10.3263 44.4248L10.3595 44.4137C10.732 44.2886 11.111 44.1614 11.4836 44.054L12.6408 43.6837C13.0241 43.5644 13.4063 43.4483 13.7882 43.3323C14.1772 43.2142 14.5661 43.0961 14.9554 42.9748C15.2842 42.8932 15.6109 42.8094 15.9372 42.7256C16.3911 42.6091 16.8451 42.4925 17.3025 42.3829C18.0481 42.1948 18.8329 42.0071 19.6178 41.8317L19.6146 41.8327L19.622 41.8308L19.6178 41.8317L19.6239 41.8303Z" fill="#B79947"/>
    <path fill-rule="evenodd" clip-rule="evenodd" d="M10.7879 46.5833C10.7917 46.5819 10.7958 46.5803 10.8003 46.5786C10.9568 46.5186 11.1094 46.4525 11.2604 46.3839C11.3753 46.335 11.4901 46.2859 11.6049 46.2368C11.9833 46.0749 12.3621 45.9128 12.7458 45.7574L14.7093 44.8929C14.884 44.8176 15.0583 44.7441 15.232 44.6708C15.718 44.4659 16.1996 44.2628 16.6732 44.0279C16.9744 43.8881 17.2828 43.7568 17.5916 43.6253C17.9428 43.4758 18.2947 43.326 18.6367 43.1634C18.5529 43.185 18.4721 43.2082 18.3915 43.2314L18.6295 43.1265C18.6295 43.1265 18.4304 43.1972 18.1525 43.2986C18.1425 43.3013 18.1325 43.3039 18.1223 43.3065L17.608 43.469C17.2703 43.5796 16.9321 43.6966 16.5939 43.8393C16.1764 44.0201 15.7741 44.2208 15.3728 44.4209C15.1368 44.5387 14.9011 44.6562 14.663 44.7694L12.7316 45.6991L11.8725 46.0998C11.7402 46.1602 11.6162 46.2167 11.5025 46.2683L10.7879 46.5833ZM11.5025 46.2683L11.6469 46.2047C11.6179 46.2182 11.5889 46.2317 11.5599 46.2453L11.5566 46.2468C11.458 46.2929 11.3595 46.339 11.2604 46.3839C11.1608 46.4263 11.0611 46.4686 10.9611 46.5107C11.09 46.4545 11.2757 46.3712 11.5025 46.2683Z" fill="#B79947"/>
    <path d="M11.2171 48.3843L13.3572 47.227L14.4171 46.6484C14.7746 46.4598 15.1128 46.2648 15.4638 46.0569C15.6786 45.9437 15.8863 45.8234 16.094 45.7031C16.2321 45.6231 16.3707 45.5428 16.5109 45.465C16.6864 45.3674 16.8637 45.2748 17.0409 45.1821C17.2181 45.0894 17.3954 44.9967 17.5709 44.8992C17.6723 44.8443 17.7738 44.7897 17.8752 44.7351C18.482 44.4085 19.087 44.0828 19.6775 43.7093C18.9835 43.9881 18.322 44.3104 17.6632 44.6313C17.6001 44.6621 17.5363 44.6932 17.4732 44.7239L16.9271 44.9969C16.7424 45.0736 16.5641 45.1649 16.3939 45.2699C16.1185 45.4202 15.8545 45.5781 15.5872 45.738C15.5078 45.7855 15.4276 45.8335 15.3472 45.8811C15.2737 45.9239 15.201 45.966 15.1288 46.0079L15.1256 46.0098C14.848 46.1708 14.5777 46.3275 14.3001 46.4919L13.2714 47.1164C12.7297 47.4537 12.188 47.7869 11.6527 48.1162L11.6518 48.1167C11.5187 48.1986 11.386 48.2802 11.2539 48.3616C11.2293 48.376 11.2171 48.3843 11.2171 48.3843Z" fill="#B79947"/>
    <path d="M19.6028 44.2519L19.624 44.2357L19.5948 44.2575C19.257 44.494 18.9285 44.7398 18.5991 44.9862C18.3936 45.14 18.1877 45.294 17.9791 45.4461L16.9218 46.2597L15.6054 47.2457C15.5071 47.316 15.4085 47.3863 15.3098 47.4565L15.3087 47.4573C15.1164 47.5942 14.924 47.7312 14.7341 47.8691C14.1996 48.2572 13.6654 48.6519 13.1607 49.0768L13.148 49.0863L13.1579 49.0791C13.148 49.0875 13.138 49.0959 13.1281 49.1044C13.7076 48.7336 14.2532 48.3504 14.7997 47.9471C15.0723 47.7459 15.3416 47.5415 15.6109 47.3371C15.8812 47.1319 16.1519 46.9265 16.4254 46.7247L18.0314 45.4907C18.5622 45.0893 19.1058 44.6747 19.6184 44.241C19.6132 44.2447 19.608 44.2483 19.6028 44.2519Z" fill="#B79947"/>
    <path d="M34.0138 44.3673C34.0266 44.3021 34.0789 44.2695 34.43 44.3021C34.6507 44.3226 35.612 44.2351 36.4455 44.1593C36.9374 44.1145 37.385 44.0738 37.6095 44.0617C38.2207 44.0162 40.3727 44.0484 41.4199 44.2695C42.467 44.4907 43.5265 44.7509 44.04 44.8807C44.5543 45.0239 44.7163 45.0753 44.6966 45.1405C44.6838 45.2056 44.568 45.2691 44.5016 45.2511C44.4841 45.2476 44.3473 45.2072 44.1465 45.1478C43.603 44.9872 42.591 44.6882 42.2068 44.6082C41.6805 44.4984 39.8593 44.2048 38.8636 44.2224C38.6383 44.2256 38.4459 44.2265 38.2724 44.2273C37.7299 44.2299 37.3725 44.2316 36.7767 44.3004C35.9897 44.3981 34.6893 44.528 34.2992 44.4761C33.9762 44.4381 33.9796 44.4319 34.0008 44.3927C34.0049 44.385 34.0097 44.3762 34.0129 44.3656L34.0138 44.3673Z" fill="#B79947"/>
    <path d="M16.7829 48.7876L16.7836 48.7885C16.975 48.6315 17.1616 48.4704 17.3519 48.3062C17.4786 48.1968 17.6069 48.086 17.7394 47.9741C17.8915 47.8384 18.0386 47.6976 18.1857 47.5569C18.3344 47.4146 18.4833 47.2721 18.6369 47.1353C18.8301 46.9632 19.0285 46.7983 19.2255 46.6346C19.3398 46.5395 19.4544 46.4443 19.5666 46.3488C19.6186 46.3014 19.6732 46.2541 19.7284 46.2062C19.8252 46.1224 19.9242 46.0366 20.0153 45.9455C20.0364 45.9244 20.0575 45.9019 20.0792 45.8789C20.1239 45.8313 20.1706 45.7815 20.2232 45.7376C20.2519 45.7003 20.2832 45.6707 20.3147 45.6408C20.3443 45.6127 20.3742 45.5843 20.4024 45.5492L20.4304 45.5241C20.4285 45.5252 20.4266 45.5262 20.4247 45.5273C20.4215 45.5292 20.4182 45.531 20.4149 45.533C20.4204 45.5256 20.4258 45.518 20.4311 45.51C20.3517 45.5205 20.2857 45.5666 20.2256 45.6086C20.2023 45.6248 20.18 45.6405 20.1581 45.6531C20.0642 45.7002 19.9769 45.7593 19.8983 45.8289C19.7411 45.9591 19.5912 46.0981 19.4496 46.2451C19.3264 46.371 19.2043 46.4995 19.0824 46.6278C18.9214 46.7974 18.7606 46.9666 18.5979 47.1293C18.4692 47.2584 18.3241 47.3886 18.1918 47.5072C18.1774 47.5201 18.1632 47.5329 18.1491 47.5455L17.6811 47.9484C17.3759 48.2215 17.0703 48.5009 16.7844 48.7864L16.7829 48.7876Z" fill="#B79947"/>
    <path d="M20.6666 46.1916L20.672 46.1863C20.4444 46.3749 20.2352 46.5833 20.0209 46.7976L19.9262 46.8903L19.0637 47.7045C18.9531 47.8004 18.844 47.8963 18.7397 48.0003L18.4569 48.2773L18.1166 48.5986C18.1371 48.5826 18.1615 48.5628 18.1892 48.5395L18.1157 48.6115C18.2972 48.4758 18.4601 48.334 18.6267 48.1889C18.6811 48.1416 18.736 48.0937 18.792 48.0457C18.9392 47.9071 19.0751 47.7684 19.211 47.6296C19.2789 47.5603 19.3468 47.491 19.4161 47.4217L20.059 46.8105C20.2743 46.6171 20.4772 46.4104 20.6666 46.1916Z" fill="#B79947"/>
    <path d="M18.3561 52.058L18.3752 52.0205C18.5176 51.663 18.7023 51.3246 18.8835 50.9926C18.9073 50.9491 18.9314 50.905 18.9549 50.8616C18.9785 50.8217 19.0019 50.7817 19.025 50.7417L19.8892 49.0412C19.9108 48.9952 19.9325 48.9497 19.9538 48.9048C20.0222 48.7611 20.0878 48.6231 20.1439 48.4884C20.1804 48.4104 20.2142 48.3342 20.2473 48.2594C20.3025 48.1349 20.3559 48.0144 20.4169 47.8969C20.4387 47.857 20.4597 47.8173 20.4807 47.7779C20.5655 47.6181 20.6479 47.4627 20.7679 47.3114C20.7679 47.5519 20.7036 47.7602 20.6256 47.9681C20.5496 48.1761 20.4629 48.3801 20.3659 48.5793C20.2682 48.7743 20.1576 48.9826 20.047 49.1712C20.0113 49.2321 19.9735 49.2937 19.9354 49.3558C19.8558 49.4857 19.775 49.6175 19.7088 49.7498L19.0522 50.9071C19.0049 50.9872 18.958 51.0673 18.911 51.1475C18.7319 51.4532 18.5535 51.7577 18.363 52.0515C18.3667 52.042 18.3704 52.0326 18.3741 52.0232C18.368 52.035 18.362 52.0466 18.3561 52.058Z" fill="#B79947"/>
    <path d="M22.5053 54.574C22.4411 53.4947 23.084 52.643 23.084 52.643C22.9707 52.9543 22.8424 53.4064 22.7194 53.8398C22.6445 54.1034 22.5717 54.3601 22.5053 54.574Z" fill="#B79947"/>
    <path d="M23.279 56.9494C23.4676 55.8114 23.6952 53.4968 23.6952 53.4968C23.6136 55.3745 23.5639 55.6064 23.3944 56.3988C23.361 56.5549 23.3229 56.7328 23.279 56.9494Z" fill="#B79947"/>
    <path d="M27.9417 57.1222C27.9497 57.0986 27.9539 57.0861 27.9539 57.0861V57.0839C27.9499 57.0966 27.9458 57.1094 27.9417 57.1222Z" fill="#B79947"/>
    <path d="M27.9417 57.1222C27.83 57.4536 26.9904 59.9673 26.972 60.701C27.0076 60.5627 27.0489 60.3998 27.0948 60.2188C27.3142 59.3537 27.6379 58.0776 27.9417 57.1222Z" fill="#B79947"/>
    <path d="M30.2038 52.4682C30.2038 52.4682 31.7644 55.0429 32.935 57.2404C32.6182 56.1346 31.8896 54.1063 30.2038 52.4682Z" fill="#B79947"/>
    <path d="M34.3967 56.2584C35.2536 57.7729 36.0263 59.3336 36.7113 60.9333C36.5814 59.8279 36.2299 57.936 34.3967 56.2584Z" fill="#B79947"/>
    <path d="M29.2551 43.9825C29.1771 43.9696 29.0472 44.0476 29.0798 44.0798L29.0781 44.0811C29.1754 44.2045 29.7347 44.5298 29.8256 44.5363C29.8903 44.5491 30.0527 44.4707 30.0334 44.4385C30.0274 44.4284 30.009 44.4054 29.9857 44.3761C29.935 44.3124 29.8607 44.2192 29.8384 44.1655C29.8714 44.1985 30.0664 44.1526 30.0793 44.1201C30.0888 44.096 30.0556 44.0007 30.0325 43.9344C30.0244 43.9111 30.0175 43.8914 30.0142 43.8796C29.9843 43.8714 29.953 43.8701 29.9226 43.8758C29.8921 43.8814 29.8634 43.8939 29.8384 43.9122C29.8194 43.928 29.8038 43.9476 29.7927 43.9697C29.7815 43.9919 29.7751 44.016 29.7737 44.0408C29.764 44.0248 29.7531 44.0096 29.7411 43.9953C29.7218 43.9825 29.6095 43.9628 29.5787 43.9953C29.5728 44.0016 29.5675 44.0083 29.5623 44.015C29.5401 44.0432 29.5184 44.0709 29.4501 44.0605C29.4067 44.0539 29.377 44.0369 29.3478 44.0201C29.3202 44.0043 29.293 43.9887 29.2551 43.9825Z" fill="#62593C"/>
    <path fill-rule="evenodd" clip-rule="evenodd" d="M30.2825 42.1943C30.2372 42.2588 29.9462 42.9004 29.9314 43.0005C29.9193 42.9681 29.8961 42.94 29.8663 42.9225C29.8209 42.9096 29.6713 42.9225 29.6713 43.0005C29.6713 43.0785 29.7998 43.5149 29.9443 43.742C29.9788 43.7903 30.011 43.8368 30.0414 43.8806C30.1539 44.0433 30.2408 44.1689 30.3279 44.2101C30.3626 44.2259 30.402 44.228 30.4382 44.2159C30.4744 44.2038 30.5047 44.1784 30.5229 44.1449C30.5358 44.1124 30.5684 43.8719 30.5555 43.3061C30.5426 42.7403 30.5229 42.1943 30.4904 42.1617C30.4578 42.1291 30.3279 42.1296 30.2825 42.1943Z" fill="#62593C"/>
    <path d="M30.5228 45.3609C30.5292 45.3297 30.5221 45.3105 30.5164 45.2954C30.5104 45.2789 30.5061 45.2673 30.5228 45.2504C30.5549 45.2178 30.7311 45.1531 30.7637 45.1852C30.7717 45.1934 30.7697 45.2165 30.7671 45.2479C30.7655 45.2672 30.7637 45.2897 30.7637 45.3138C30.7637 45.3772 30.7637 45.4424 30.7311 45.4891C30.6857 45.5542 30.5558 45.5868 30.4907 45.5675C30.4255 45.5482 30.4126 45.4569 30.4126 45.4389C30.4448 45.4261 30.5228 45.3935 30.5228 45.3609Z" fill="#62593C"/>
    <path d="M31.6329 44.6589C31.6329 44.6263 31.7435 44.5611 31.8087 44.5611C31.8856 44.5611 31.9017 44.61 31.9116 44.6401C31.9143 44.6481 31.9165 44.6547 31.9192 44.6589C31.9293 44.6629 31.9362 44.6631 31.9419 44.6633C31.9545 44.6637 31.9615 44.6639 31.984 44.7043C32.0165 44.763 32.0624 44.8667 32.0294 44.9319C31.9964 44.997 31.8669 45.042 31.8348 45.0292C31.7894 44.9966 31.6462 44.7043 31.6329 44.6589Z" fill="#62593C"/>
    <path d="M29.1179 45.2926C29.4067 45.1867 29.5406 45.0421 29.5406 45.0421C29.521 44.9722 29.4818 44.9093 29.4277 44.861C29.3735 44.8126 29.3067 44.7807 29.235 44.7691C29.0726 44.7044 28.9101 44.7695 28.767 44.9774C28.6271 45.1805 28.7171 45.3091 28.7637 45.3757L28.767 45.3803C28.8086 45.3742 28.8484 45.367 28.8865 45.3589C28.8889 45.3803 28.9051 45.4156 28.9687 45.4634C28.9961 45.4854 29.0287 45.5064 29.0625 45.528C29.1484 45.5833 29.2417 45.6432 29.2743 45.7364C29.2952 45.7961 29.3065 45.838 29.3145 45.8677C29.3239 45.9026 29.3288 45.9208 29.3394 45.9315C29.3523 45.9443 29.5799 45.9315 29.6905 45.8663C29.711 45.8542 29.7349 45.8407 29.7602 45.8264C29.8708 45.7639 30.0069 45.6869 29.9961 45.652L29.9974 45.6533C29.9974 45.6207 29.6463 45.3803 29.2756 45.3018C29.2385 45.2945 29.2182 45.3061 29.1984 45.3174C29.1833 45.326 29.1686 45.3344 29.147 45.3344C29.1345 45.3295 29.125 45.3121 29.1179 45.2926Z" fill="#62593C"/>
    <path d="M24.5484 45.1723C24.4185 46.876 24.7888 47.2271 24.7888 47.2271C25.2183 46.5379 25.0164 45.2177 25.0164 45.2177C24.8626 45.1852 24.7056 45.17 24.5484 45.1723Z" fill="#62593C"/>
    <path d="M27.8094 47.6755L27.6809 47.7406H27.6796C27.6796 47.7406 27.7897 47.8251 28.0628 47.8186C28.2711 47.8383 28.3229 47.6755 28.3358 47.5782C28.3555 47.4809 28.2578 47.2074 28.0499 47.1748C27.8416 47.1611 27.8094 47.6755 27.8094 47.6755Z" fill="#62593C"/>
    <path d="M27.1028 45.5559C27.1028 45.5559 27.2314 45.5105 27.3887 45.6665C27.4148 45.6665 27.4586 45.6638 27.5134 45.6605C27.7289 45.6473 28.1135 45.6238 28.2536 45.7119C28.4293 45.8225 28.4812 45.9198 28.4812 45.9198C28.4812 45.9198 27.8246 46.063 27.4667 45.9198C27.1028 45.7964 27.1028 45.5559 27.1028 45.5559Z" fill="#62593C"/>
    <path d="M26.7123 46.9734C26.7123 46.9734 26.777 46.525 27.2129 46.5053C27.6612 46.4727 27.7461 46.9082 27.7461 46.9082L27.4859 47.1684C27.4859 47.162 27.2909 46.8889 26.7144 46.9734H26.7123Z" fill="#62593C"/>
    <path d="M29.3536 46.3295C29.3536 46.3295 29.126 46.1864 28.9048 46.2841C28.697 46.3818 28.7098 46.7654 28.7098 46.7654C28.7566 46.7838 28.8071 46.7904 28.857 46.7847C28.9069 46.779 28.9547 46.7612 28.9961 46.7329C29.1393 46.6356 29.321 46.4727 29.3536 46.3295Z" fill="#62593C"/>
    <path d="M29.6998 46.7125C29.7335 46.7384 29.7746 46.7699 29.7819 46.8434L29.7832 46.8417C29.7925 46.8789 29.7954 46.9294 29.7983 46.9826C29.8058 47.1152 29.8141 47.2643 29.9264 47.2643C30.0837 47.2643 30.2251 46.993 30.2123 46.894C30.1994 46.795 30.0824 46.7119 30.0044 46.6664C29.9774 46.6493 29.9523 46.6291 29.9284 46.6098C29.8816 46.572 29.8392 46.5378 29.7961 46.5378C29.7633 46.5376 29.7315 46.5484 29.7056 46.5685C29.6797 46.5885 29.6613 46.6167 29.6533 46.6484C29.6533 46.6768 29.6745 46.6931 29.6998 46.7125Z" fill="#62593C"/>
    <path d="M30.796 46.6677C30.7767 46.7457 31.0369 46.6677 31.0369 46.6677C31.0459 46.6768 31.0498 46.698 31.0548 46.7247C31.0678 46.7938 31.0876 46.8997 31.2186 46.9279C31.3751 46.9472 31.5701 46.8366 31.5701 46.7847C31.5595 46.7145 31.5326 46.6477 31.4917 46.5897C31.4777 46.5669 31.4771 46.554 31.4766 46.543C31.476 46.5288 31.4755 46.5176 31.4462 46.492C31.3944 46.4465 31.2186 46.5245 31.2186 46.5245C31.1915 46.5019 31.1567 46.4902 31.1214 46.492C31.0595 46.4976 31.0018 46.5255 30.9589 46.5704C30.8745 46.5704 30.8153 46.5897 30.796 46.6677Z" fill="#62593C"/>
    <path d="M32.5649 46.4727C32.6297 46.4204 32.5516 46.375 32.5516 46.375C32.5516 46.375 32.6948 46.375 32.7141 46.3295C32.76 46.2644 32.6948 46.2189 32.6168 46.2322C32.5319 46.2451 32.2268 46.2777 32.1487 46.2777C32.1175 46.2775 32.0866 46.2845 32.0584 46.298C32.0302 46.3115 32.0054 46.3312 31.9859 46.3557C31.8886 46.3882 31.7261 46.5185 31.7261 46.5833C31.7261 46.6304 31.8192 46.6262 31.9452 46.6204C31.9921 46.6182 32.0436 46.6158 32.0965 46.6158C32.2919 46.6013 32.5195 46.5181 32.5649 46.4727Z" fill="#62593C"/>
    <path d="M32.7925 44.5752C32.9027 44.5752 33.0004 44.3673 33.0004 44.3673V44.3686C33.0651 44.4222 33.1303 44.3883 33.1821 44.3365C33.2293 44.3035 33.3579 44.1607 33.3579 44.0956C33.3579 44.0304 33.2606 43.9983 33.15 43.9983C33.0549 44.0009 32.9633 44.0352 32.8898 44.0956C32.7925 44.081 32.6819 44.159 32.6819 44.2242C32.6687 44.3022 32.7471 44.3022 32.7792 44.3022C32.7861 44.319 32.7598 44.3586 32.7328 44.3991C32.7076 44.4368 32.6819 44.4753 32.6819 44.4972C32.6819 44.5298 32.6819 44.5623 32.7925 44.5752Z" fill="#62593C"/>
    <path d="M31.3892 48.2879C31.3892 48.2232 31.5178 48.2099 31.5178 48.2099L31.5191 48.2124C31.5191 48.2124 31.5384 48.1786 31.4801 48.1267C31.4779 48.1245 31.4758 48.1225 31.4738 48.1205C31.4464 48.0938 31.4421 48.0897 31.5453 48.029C31.6558 47.9638 31.6884 48.029 31.6884 48.029C31.732 48.0046 31.7817 47.9933 31.8316 47.9964C31.9289 47.9964 31.994 48.0487 32.0266 48.1593C32.0266 48.2227 31.9614 48.2557 31.8834 48.2879C31.8134 48.3285 31.7361 48.3551 31.6558 48.3659C31.5792 48.3659 31.5626 48.326 31.5529 48.3024C31.5502 48.296 31.548 48.2907 31.5453 48.2879C31.5198 48.2952 31.4937 48.2997 31.4672 48.3012C31.4214 48.3205 31.3892 48.3204 31.3892 48.2879Z" fill="#62593C"/>
    <path d="M30.9911 48.8082C30.9456 48.7885 30.7832 48.8537 30.7832 48.8862V48.8875C30.7832 48.9011 30.7968 48.9228 30.8111 48.9457C30.8311 48.9776 30.8527 49.012 30.8415 49.0307C30.8415 49.0374 30.8216 49.0456 30.802 49.0537C30.7826 49.0618 30.7635 49.0697 30.7635 49.0761C30.7635 49.0941 30.8736 49.2047 30.9388 49.2047C31.0039 49.2047 31.1664 49.1267 31.1664 49.0941C31.1664 49.068 31.0365 48.8211 30.9911 48.8082Z" fill="#62593C"/>
    <path d="M30.3033 47.9048C30.2934 47.9188 30.2853 47.9303 30.2688 47.9368C30.2165 47.9694 30.1248 48.0406 30.0922 48.1057C30.0597 48.1709 30.0922 48.3012 30.1248 48.314C30.1574 48.3269 30.3786 48.3269 30.541 48.2814C30.7034 48.2163 30.7489 48.1186 30.7489 48.0406C30.7489 48.0038 30.7344 47.9699 30.7191 47.9341C30.7019 47.8941 30.6837 47.8517 30.6837 47.8001C30.6983 47.7675 30.6332 47.7547 30.5551 47.7675C30.5321 47.7716 30.5102 47.7807 30.491 47.7943C30.4719 47.8079 30.456 47.8255 30.4446 47.846C30.4284 47.8405 30.4111 47.8388 30.3942 47.8411C30.3773 47.8433 30.3611 47.8494 30.3468 47.8588C30.3244 47.8749 30.313 47.891 30.3033 47.9048Z" fill="#62593C"/>
    <path d="M29.4312 47.7407C29.4312 47.7407 29.2233 47.9031 29.171 47.9815C29.1574 47.9978 29.1329 48.0281 29.1016 48.0667C28.9828 48.2136 28.7671 48.4801 28.6901 48.5469C28.7224 48.4899 28.7592 48.4356 28.8002 48.3844C28.6717 48.4667 28.5753 48.5906 28.5272 48.7355C28.454 48.9616 28.9025 49.0899 29.2372 49.1857C29.2589 49.1919 29.2802 49.198 29.3009 49.204C29.6386 49.3017 29.7693 49.3325 29.7693 49.3325C29.645 49.1457 29.5382 48.9476 29.4505 48.7411C29.4183 48.6646 29.39 48.6052 29.367 48.557C29.2981 48.4122 29.2766 48.3671 29.3399 48.2597C29.3636 48.2076 29.3916 48.1616 29.4176 48.1189C29.4632 48.044 29.5027 47.979 29.5027 47.9087C29.4637 47.8058 29.4312 47.7407 29.4312 47.7407Z" fill="#62593C"/>
    <path fill-rule="evenodd" clip-rule="evenodd" d="M82.2187 43.5C82.2187 64.8837 64.8837 82.2187 43.5 82.2187C22.1162 82.2187 4.78125 64.8837 4.78125 43.5C4.78125 22.1162 22.1162 4.78125 43.5 4.78125C64.8837 4.78125 82.2187 22.1162 82.2187 43.5ZM81.4035 43.5001C81.4035 64.4333 64.4338 81.403 43.5006 81.403C22.5674 81.403 5.59766 64.4333 5.59766 43.5001C5.59766 22.5669 22.5674 5.59717 43.5006 5.59717C64.4338 5.59717 81.4035 22.5669 81.4035 43.5001Z" fill="#7A6A2A"/>
    <path opacity="0.8" fill-rule="evenodd" clip-rule="evenodd" d="M65.5005 33.6621C61.4552 23.2156 51.455 21.2803 51.455 21.2803H22.9243L23.0343 31.9209H28.7163V55.6816H22.9238V66.303H50.6653C57.3511 66.303 62.7105 59.5843 62.7105 59.5843C71.2929 47.4034 65.5 33.6621 65.5 33.6621H65.5005ZM50.8142 52.4257C50.8142 52.4257 48.6382 55.5651 46.2706 55.5651H41.5346L41.4224 31.9469H47.5003C47.5003 31.9469 50.3163 32.5357 52.2836 38.1084C52.2836 38.1084 54.8918 46.0871 50.8142 52.4257Z" fill="white"/>
</svg>
