<svg width="90" height="90" viewBox="0 0 90 90" fill="none" xmlns="http://www.w3.org/2000/svg">
    <rect x="5" y="5" width="80" height="80" rx="16" fill="#009393"/>
    <path fill-rule="evenodd" clip-rule="evenodd" d="M64.4645 32.0903V25H25.4177V32.0903H40.0748V37.0062C29.7807 37.5315 22.0576 39.6892 22.0004 42.2754L22 47.6667C22.0573 50.2529 29.7807 52.4104 40.0748 52.9358V65H49.8074V52.9358C60.1015 52.4104 67.8246 50.2529 67.8819 47.6667L67.8822 42.2754C67.8249 39.6892 60.1015 37.5315 49.8074 37.0062V32.0903H64.4645ZM67.3561 44.971C65.109 47.4074 55.9268 49.2319 44.9411 49.2319C33.9554 49.2319 24.7732 47.4074 22.5261 44.971C24.4316 42.9049 31.3243 41.2789 40.0748 40.8323V45.9792C41.6432 46.0593 43.2713 46.1015 44.9411 46.1015C46.6109 46.1015 48.239 46.0593 49.8074 45.9792V40.8323C58.5579 41.2789 65.4505 42.9049 67.3561 44.971Z" fill="white"/>
</svg>
